<svg id="Layer_1" data-name="Layer 1" xmlns="http://www.w3.org/2000/svg" viewBox="0 0 616.32 181.6"><defs><style>.cls-1{fill:#fff;}</style></defs><title>Botho University Logo White</title><path class="cls-1" d="M512.24,202.07v-17l1,0q.21,8.5.43,17Z" transform="translate(-23.5 -20.47)"/><path class="cls-1" d="M376.79,202.07v-17l1,0q.21,8.5.43,17Z" transform="translate(-23.5 -20.47)"/><path class="cls-1" d="M493.2,24.47c-1.22.2-2.43.46-3.65.57-2.4.2-3.88,1.54-3.95,3.84-.23,7.39-.28,14.78-.38,22.17,0,1.72,1.29,1.57,2.43,1.57q11.33,0,22.66,0c3.08,0,6.17,0,9.25,0,1.43,0,2.05-.47,2-2-.07-6.75,0-13.49-.14-20.23-.07-3.8-1.5-5.1-5.4-5.45-1.24-.11-2.48-.31-3.72-.46l-.1-.75a6.31,6.31,0,0,1,1.9-.62q12.64-.07,25.31,0a8.56,8.56,0,0,1,1.89.42c0,.27,0,.54,0,.81-1,.2-2,.48-3,.6-3.49.42-4.5,1.4-4.71,4.95-.17,3-.34,6-.32,9q.12,22.29.34,44.59a21.81,21.81,0,0,0,.2,2.92c.54,3.76,1.54,4.66,5.36,4.94,1.45.11,2.9.26,4.34.39l.09.87a5.42,5.42,0,0,1-1.76.66q-13.14.06-26.28,0a7.08,7.08,0,0,1-1.89-.54l0-.81a27.17,27.17,0,0,1,2.79-.49c3.12-.24,4.17-1,4.47-4,.4-4.11.54-8.26.62-12.4.1-5,0-10.07.06-15.11,0-1.72-.54-2.22-2.24-2.21-10.64.07-21.27,0-31.91,0-1.21,0-2.31,0-2.26,1.68.23,9.17.32,18.35.7,27.51.14,3.23,1.42,4.13,4.69,4.43l4.88.43.08.89a8.71,8.71,0,0,1-2.2.64q-12.78.06-25.55,0a12.17,12.17,0,0,1-2.19-.45l-.07-.73a11.43,11.43,0,0,1,2.22-.65c4-.32,4.63-.73,5.14-4.69a78.83,78.83,0,0,0,.58-9.71c.06-14.06,0-28.12,0-42.18,0-1.54-.11-3.08-.19-4.62-.2-3.67-1.5-5-5.28-5.3-1.28-.11-2.56-.31-4.28-.52C465.54,22.9,491.34,22.76,493.2,24.47Z" transform="translate(-23.5 -20.47)"/><path class="cls-1" d="M591.56,94.7c-11.65-.35-20-2.51-26.7-8.7-11.22-10.41-14.57-23.4-10.68-38C558,33.83,567.56,25.42,582,22.6a49.15,49.15,0,0,1,20.77.48c14.86,3.47,24,13.8,25.58,29.05,1.73,16.29-5.41,30.72-18.82,38A39.9,39.9,0,0,1,591.56,94.7ZM565.24,54.93l.32.06c.09,1.7.11,3.41.29,5.1,1,9.24,4,17.57,11.28,23.8,14,12,32.6,6.07,37-11.75a48.71,48.71,0,0,0,.24-22.46c-1.89-8.48-6-15.6-13.71-20.12-13.59-7.92-29.28-1.71-33.45,13.41C566.13,46.84,565.87,50.94,565.24,54.93Z" transform="translate(-23.5 -20.47)"/><path class="cls-1" d="M389.06,56.62c0,23.23-17.48,39.43-40.78,38-15.66-1-27.11-8-32.65-23C307.84,50.49,319.2,24.39,346.48,22a53.2,53.2,0,0,1,17.62,1.24C379.94,27.22,389.06,39.46,389.06,56.62Zm-12.84,4.09c-.34-3.41-.43-6.27-.93-9.05-1.57-8.69-5.19-16.22-12.8-21.27-14-9.3-31-2.8-35,13.43a46.76,46.76,0,0,0,.18,23.38c1.85,7.1,5.29,13.26,11.31,17.71,14.44,10.68,31.93,4.28,35.8-13.18C375.59,68,375.79,64,376.22,60.71Z" transform="translate(-23.5 -20.47)"/><path class="cls-1" d="M250.2,23.67a8.35,8.35,0,0,1,2-.52c8.92,0,17.83-.11,26.75,0a25.77,25.77,0,0,1,7.14,1.31c8.75,2.77,12.54,11.16,8.41,19.4-1.73,3.46-4.61,6.35-6.92,9.43a80.71,80.71,0,0,1,7.24,4.27c6.43,4.65,9.66,10.93,8.31,18.95-1.3,7.76-6.12,12.9-13.45,15.19A48,48,0,0,1,277,93.49c-7.28.21-14.58-.06-21.87-.17-1.19,0-2.38-.24-3.57-.36l0-.94a17.83,17.83,0,0,1,2.55-.54c3.52-.26,4.5-.91,4.78-4.5.43-5.49.68-11,.7-16.52.05-12.58-.07-25.16-.13-37.74q0-1.21-.09-2.43c-.21-3.59-1.51-4.93-5.05-5.28-1.37-.13-2.73-.3-4.1-.45Zm20.63,46.75h.2c0,4.54-.13,9.09.08,13.63a5.13,5.13,0,0,0,1.81,3.46c7.08,5.12,17.56.76,18.79-7.83a22.26,22.26,0,0,0-.24-6.76c-1.29-7.51-6.73-16.79-18.41-16.2-1.7.09-2.29.58-2.25,2.25C270.88,62.78,270.83,66.6,270.83,70.42Zm4.38-17.61c5.92.08,9.08-1.88,10.3-6.76a19.91,19.91,0,0,0,.54-6.48c-.73-8-5.6-12.68-12.62-12.58-2.05,0-2.65.83-2.63,2.77.07,6.8.09,13.6,0,20.41,0,1.88.63,2.72,2.48,2.64C273.92,52.79,274.57,52.81,275.21,52.81Z" transform="translate(-23.5 -20.47)"/><path class="cls-1" d="M52.4,108.36c0-38.89,31.54-70.14,70.77-70.12,38.28,0,69.68,31.62,69.71,70.18a70.16,70.16,0,0,1-70.51,70.33C83.73,178.72,52.4,147.2,52.4,108.36Zm70.25,67.51A67.46,67.46,0,0,0,190,108.46c0-37-30.21-67.28-67-67.3-37.4,0-67.7,30-67.73,67A67.36,67.36,0,0,0,122.65,175.87Z" transform="translate(-23.5 -20.47)"/><path class="cls-1" d="M420,29c-6,0-11.68-.06-17.35,0-3.4,0-5.52,1.93-6.69,5.08-.24.63-.94,1.1-1.43,1.64-.22-.72-.72-1.48-.61-2.14.57-3.52,1.24-7,2-10.51A2,2,0,0,1,397.6,22c3.61.35,7.2,1.25,10.8,1.28,14,.1,28.08-.05,42.12-.14a16.54,16.54,0,0,0,2.89-.35c3.16-.55,3.24-.54,3.19,2.57s-.18,6.32-.33,9.49a10.31,10.31,0,0,1-.49,1.91l-.68,0a6.55,6.55,0,0,1-.75-2c0-2.85-1.71-4.34-4.14-5a25.73,25.73,0,0,0-6-1c-4-.15-8.08,0-12.3,0a4.66,4.66,0,0,0-.17,1q.06,26.32.14,52.64a8,8,0,0,0,0,1c.69,6.3.18,8.22,8.09,8.19a9,9,0,0,1,2,.45l.08.7a7.92,7.92,0,0,1-2.2.66c-8.59,0-17.19,0-25.79,0a10.8,10.8,0,0,1-2-.41l-.07-.84a13.64,13.64,0,0,1,2.41-.58c3.57-.25,4.47-.85,4.92-4.39a83,83,0,0,0,.64-10c.06-15.68,0-31.36,0-47A9,9,0,0,0,420,29Z" transform="translate(-23.5 -20.47)"/><ellipse class="cls-1" cx="415.42" cy="83.49" rx="281.37" ry="0.43"/><path class="cls-1" d="M240,173.59h397.8v.61H239.94Z" transform="translate(-23.5 -20.47)"/><path class="cls-1" d="M336.23,153.84c0-6.71,0-13,0-19.33,0-3.33-.17-6.65-.28-10-.12-4-.5-4.37-4.39-4.89a1.08,1.08,0,0,1-.8-.69h12.49c0,.06,0,.31-.06.34-3.65,1.42-3.64,1.42-3.66,5.62q-.07,17.29-.16,34.59a8.86,8.86,0,0,1-.42,3.15c-12.11-10.9-22.86-23-34-35.24,0,3-.05,5.7,0,8.39.13,6.24.32,12.49.48,18.74.14,5.46.29,5.66,5.29,7.47H297.09c4.53-1.93,4.65-1.93,4.7-6.82.09-11.29,0-22.58.07-33.87,0-1.1.16-2.2.25-3.3l.66-.31Z" transform="translate(-23.5 -20.47)"/><path class="cls-1" d="M466.07,143.8c0,4.79,0,9.08,0,13.37,0,2.5.93,4.28,3.87,4.14a1.56,1.56,0,0,1,1.24.77H457.38c4.51-1.05,3.65-4.69,3.67-7.73q.12-15,0-30c0-4-.12-4-4.14-4.83-.19,0-.35-.26-.51-.39.12-.17.19-.38.27-.38,6.31.09,12.69-.3,18.93.43,7.7.9,11.33,7.46,8.43,14.7-1.24,3.08-3.5,5.75-5.7,9.25,4.2,4.85,8.63,10.42,13.6,15.48,1.75,1.79,4.79,2.31,7,3.29-3.42,1.66-11,.2-13.87-3.26-3.25-3.93-6.4-8-9.29-12.19a5.59,5.59,0,0,0-5.45-2.7C469,143.86,467.6,143.8,466.07,143.8ZM466,131c0,2.76-.1,5.53.07,8.28a2.85,2.85,0,0,0,1.34,2.14c7.08,2.65,12.16-.7,12.64-8.27a16.35,16.35,0,0,0-.19-3.63c-1.08-6.46-5.54-9.67-12-8.77-1.42.19-1.93.8-1.89,2.21C466,125.59,466,128.27,466,131Z" transform="translate(-23.5 -20.47)"/><path class="cls-1" d="M248,118.86h13.63c-4.52.75-3.76,4.23-3.77,7.19,0,6.82,0,13.65.11,20.47a21.5,21.5,0,0,0,1,5.73c1.68,5.61,5.87,8.53,11.86,8.46,5.54-.07,9.64-3.18,11.17-8.72a23.25,23.25,0,0,0,.87-5.74c.13-7.47.18-14.95.11-22.42,0-3.21-.21-3.21-4.59-4.86h12.21c0,.1,0,.37-.06.39-3.9,1.12-3.53,1.2-3.7,5.88-.25,6.9.07,13.81-.2,20.71s-2.64,12.67-9.49,15.72c-10.47,4.66-21.84-.74-23.89-11.48a35.82,35.82,0,0,1-.56-6.3c-.08-6.66,0-13.32-.09-20,0-3.41-.4-3.7-3.88-4.29a3,3,0,0,1-.78-.35Z" transform="translate(-23.5 -20.47)"/><path class="cls-1" d="M394.71,163.82c-.84-1.61-1.39-2.49-1.77-3.43q-6.87-17.16-13.7-34.33c-1.34-3.42-2.49-6.9-7.52-6.39l.38-.7h14.43s0,.32-.06.34c-3.4,1.19-3.41,1.19-2.11,4.66,3.82,10.16,7.63,20.32,11.67,31.08,1.89-4.73,3.61-8.94,5.24-13.18,2.15-5.6,4.28-11.21,6.32-16.84,1.55-4.26,1.48-4.29-2.37-6.16h12c0,.13,0,.41-.07.42-3.53.42-4.75,3-5.94,5.91-4.92,11.83-9.93,23.61-14.93,35.41C396,161.47,395.49,162.28,394.71,163.82Z" transform="translate(-23.5 -20.47)"/><path class="cls-1" d="M445.23,118.77c-.24,2.18-.5,4.49-.77,6.9-.35-.15-.69-.2-.73-.34-1.09-3.57-1.66-4-5.36-4.18-2-.08-4.06-.07-6.09-.08a6.31,6.31,0,0,0-.93.17v16.33c3.61.88,10.1.4,13-1.07-.27,2.72-.53,5.3-.79,7.87-.68-4.35-4-4.05-7-4.14-1.69,0-3.38,0-5.24,0,0,5.83-.1,11.54.11,17.25,0,.78,1.53,2.07,2.44,2.15,2.79.26,5.77.56,8.4-.17,1.67-.47,2.85-2.75,4.44-4.42-.36,2.1-.7,4.42-1.21,6.7-.08.33-.93.7-1.43.7-7.26,0-14.53,0-22-.33,4.73-1.07,3.89-4.69,3.91-7.73q.13-15,0-30c0-4-.14-4-4.13-4.84-.19,0-.35-.25-1.08-.8Z" transform="translate(-23.5 -20.47)"/><path class="cls-1" d="M579.77,162.07H565.51c4-.6,3.73-3.63,3.76-6.36.11-10.88.15-21.76.2-32.64a10,10,0,0,0-.18-1.42c-4,0-7.78-.33-11.51.16-1.56.2-2.91,2.12-4.7,3.53.58-2.55,1.11-4.9,1.58-6.94H589.5v7.43c-1.18-4.89-5.15-4.19-8.55-4.43-2-.14-4,0-6.36,0a14.13,14.13,0,0,0-.22,2q.06,16.32.16,32.64c0,.57.06,1.14.09,1.71.1,2.14.92,3.58,3.36,3.55a7.89,7.89,0,0,1,1.82.43Z" transform="translate(-23.5 -20.47)"/><path class="cls-1" d="M602.34,118.91c-.14,1.23-.73,2.55-.31,3.31,3.38,6.17,6.94,12.24,10.62,18.64,3.51-6.13,6.87-11.91,10.11-17.76.79-1.43,1-3-1-4.15H631.9c-8.85,4.81-11.55,14.43-16.43,22.36-1,1.59-1,3.89-1.11,5.88-.14,3.24,0,6.49.12,9.73.09,3.43.45,3.79,3.85,4.35a2,2,0,0,1,1.33.77H605.51c4.42-.76,3.71-4.16,3.77-7.15,0-1,.08-1.95.16-2.91a22,22,0,0,0-4-15.18c-2.23-3.08-4-6.48-6-9.71s-4-6.68-8.08-8.18Z" transform="translate(-23.5 -20.47)"/><path class="cls-1" d="M520.46,118.81v7.43l-.42.12a7.89,7.89,0,0,1-.61-1.28c-1-3.19-2.55-4.58-5.83-4.93s-6.23,0-8.09,3.13a6.93,6.93,0,0,0,1,8.15c1.9,2.07,4.21,3.78,6.3,5.69a53.65,53.65,0,0,1,6,5.7c6.2,7.75,2.31,18.35-7.46,19.89-3.23.51-6.72-.31-10-.84-.7-.1-1.6-1.51-1.69-2.39a66.28,66.28,0,0,1-.08-6.91l.83-.07c.12.54.27,1.08.37,1.63.7,3.67,2.66,5.76,6,6.44,4.16.84,7.62-.35,9.51-3.25a8.07,8.07,0,0,0-.6-9.55,65.81,65.81,0,0,0-5.73-5.59c-1.94-1.83-4.07-3.5-5.84-5.48-3.43-3.84-4.34-8.32-2.21-13.1,1.76-3.94,6.7-6.22,12-5.76C516,118,518.17,118.46,520.46,118.81Z" transform="translate(-23.5 -20.47)"/><path class="cls-1" d="M547.7,162.07H532.8c3.75-.66,3.77-3.48,3.78-6.21q.09-15.35.09-30.68c0-2.81.25-5.83-3.88-6.24h12.66c-4.44.75-3.73,4.18-3.72,7.14,0,10.07,0,20.13.17,30.19.07,4.2.23,4.19,4.38,5.11A10.48,10.48,0,0,1,547.7,162.07Z" transform="translate(-23.5 -20.47)"/><path class="cls-1" d="M354.17,118.81h12.7c0,.26,0,.52-.05.54-3.43,1.21-3.65,1.45-3.66,5.16q0,15.45.06,30.9c0,.81.14,1.61.18,2.42.1,2.22,1.09,3.48,3.46,3.43a2.07,2.07,0,0,1,1.55.79H354.24c4-.54,3.74-3.62,3.77-6.33q.18-15.57.16-31.14c0-2.72-.29-5.4-4.57-5Z" transform="translate(-23.5 -20.47)"/><path class="cls-1" d="M153.29,183.06a50.63,50.63,0,0,1,0,5.91,4.1,4.1,0,0,1-3.61,3.72,16.54,16.54,0,0,0-3.07,1.26l.23,1a11.69,11.69,0,0,0,2.58,0c4.79-1.08,8.1.63,10.25,5.58-3.79,1.15-7.62,2.06-11.23,0a21.06,21.06,0,0,0-15.18-2.59,22.34,22.34,0,0,1-4.84.26,9.41,9.41,0,0,1-2.34-.72l0-.75a16.22,16.22,0,0,1,2.47-.89,12.27,12.27,0,0,1,2.43-.1c6.46-.06,11.75-1.87,15.15-8.11,1.21-2.21,4.27-3.41,6.49-5.07Z" transform="translate(-23.5 -20.47)"/><path class="cls-1" d="M85.64,200.36a61,61,0,0,1,4.41-4.62,5.3,5.3,0,0,1,5.66-1,13.67,13.67,0,0,0,3.29.43l.29-.86A8.26,8.26,0,0,0,97.56,193c-5.08-2-6.37-4.67-4.58-10.09,2.72.88,5.63,2,6.86,4.49,3.44,7,9.43,8.23,16.22,8.35a27.57,27.57,0,0,1,3.8.61l.08,1a8.25,8.25,0,0,1-2.44.78,42.49,42.49,0,0,1-6.77-.47,18,18,0,0,0-12.56,2.52C94.23,202.44,90.27,201.69,85.64,200.36Z" transform="translate(-23.5 -20.47)"/><path class="cls-1" d="M474.05,185.34h5.17l-.7,5.41h4.6c-.2-1.74-.4-3.51-.61-5.36h4.57c-1.29,1.8-1.31,10.58.07,12.39h-4.56c.19-1.8.37-3.62.59-5.67h-4.54c.1,1.93.2,3.74.31,5.67h-4.24C476.21,195.59,476,187.09,474.05,185.34Z" transform="translate(-23.5 -20.47)"/><path class="cls-1" d="M462.66,197.69c-5,1.63-5.19-3.62-8.39-5.7.16,2.21.3,4,.43,5.83h-4c1.08-2.38.89-10.66-.32-12.29a64.6,64.6,0,0,1,8.13.12A3.57,3.57,0,0,1,461,188.1c0,1.41-.95,2.84-1.74,4.9C460,194,461.29,195.84,462.66,197.69Zm-8.21-5.82c1.33-.67,2.61-.94,3.15-1.72a3.07,3.07,0,0,0,0-2.87c-.54-.75-1.84-1-3.11-1.55Z" transform="translate(-23.5 -20.47)"/><path class="cls-1" d="M424.61,198c.53-4.43.87-8.49-.25-12.83,2.16.11,4.59,0,7,.39,2.81.4,4.59,2.9,4.63,6s-1.64,5.58-4.53,6A59.52,59.52,0,0,1,424.61,198ZM428,186.23c0,3-.06,5.82,0,8.63a7.42,7.42,0,0,0,.87,2.23c.88-.45,2.41-.76,2.53-1.37a23.69,23.69,0,0,0,.55-6.81C431.86,187.07,430.39,186.06,428,186.23Z" transform="translate(-23.5 -20.47)"/><path class="cls-1" d="M619.83,198.21a6.56,6.56,0,1,1,0-13.12,6.56,6.56,0,1,1,0,13.12Zm3.45-6.69a13.51,13.51,0,0,0-.92-3.78,3.74,3.74,0,0,0-2.53-1.71,3.16,3.16,0,0,0-2.38,1.55,9,9,0,0,0,0,8.17,3.22,3.22,0,0,0,2.43,1.52,3.27,3.27,0,0,0,2.38-1.58A18.41,18.41,0,0,0,623.28,191.52Z" transform="translate(-23.5 -20.47)"/><path class="cls-1" d="M561.79,198.22c-4.06,0-6.75-2.61-6.76-6.61a6.27,6.27,0,0,1,6.59-6.52c4.06,0,6.67,2.45,6.72,6.34C568.4,195.51,565.8,198.2,561.79,198.22Zm3.34-6.54a16.77,16.77,0,0,0-.92-4,3.2,3.2,0,0,0-2.3-1.66,3.48,3.48,0,0,0-2.63,1.57,9.24,9.24,0,0,0,.05,8.17,3.21,3.21,0,0,0,2.45,1.48,3.31,3.31,0,0,0,2.39-1.6A16.45,16.45,0,0,0,565.13,191.68Z" transform="translate(-23.5 -20.47)"/><path class="cls-1" d="M241.12,185.36H251V189c-1.12-2.53-2.88-3.23-5.33-2.82v5.35l2.62-2.51v4.5l-1.89-1.92-.87.5a19.5,19.5,0,0,0,.08,3.75c.1.52,1.22,1.34,1.59,1.2a46.06,46.06,0,0,0,4.72-2.22l-.45,2.91h-9.93C242.8,195.7,242.63,187.07,241.12,185.36Z" transform="translate(-23.5 -20.47)"/><path class="cls-1" d="M151.42,23.93c4.88-1.16,9.15-.94,13,1.92,1.35,1,2.75,2.48,1.69,4-.63.93-2.68,1.44-4,1.26C157.6,30.5,154.4,27.62,151.42,23.93Z" transform="translate(-23.5 -20.47)"/><path class="cls-1" d="M369.44,194.42c-.06,3.5-.06,3.5-3.18,3.5-2.35,0-4.69,0-7.1,0,1.33-2.39,1.13-10.93-.4-12.49h10v2.7l-5.44-2.85v5.53l.44.41,2.17-2.43v5.54l-2.1-2.49-.84.25c.22,1.61,0,3.45.79,4.77S367.42,196.77,369.44,194.42Z" transform="translate(-23.5 -20.47)"/><path class="cls-1" d="M168.44,20.49c3.34,2,6.79,3.89,7.88,8,.31,1.2,0,3.51-.74,3.84a5.42,5.42,0,0,1-4.4-.3C167.39,29.72,166.3,24.83,168.44,20.49Z" transform="translate(-23.5 -20.47)"/><path class="cls-1" d="M94.56,23.89c-3.08,3.72-6.28,6.47-10.73,7.31-1.59.3-3.68.55-4.09-1.42-.24-1.12.72-3,1.71-3.8C85.16,22.86,89.56,22.84,94.56,23.89Z" transform="translate(-23.5 -20.47)"/><path class="cls-1" d="M77.53,20.47c1.91,4.52,1,9-2.5,11.3a5.52,5.52,0,0,1-4.58.61c-.78-.36-1.14-2.93-.76-4.23C70.81,24.29,74.18,22.47,77.53,20.47Z" transform="translate(-23.5 -20.47)"/><path class="cls-1" d="M437.82,185.36h9.57v2.55L442,185.43v6.09l2.75-2.48v4.76L443,191.3l-1.45.94c.37,1.6.3,3.55,1.23,4.69s3.68-.29,5.7-3.22c-.27,1.78-.43,2.87-.61,4.07h-10C439.16,195.85,439.07,187.13,437.82,185.36Z" transform="translate(-23.5 -20.47)"/><path class="cls-1" d="M319,197.92c1.49-2.1,1.39-10.86,0-12.54h9.85v2.69l-5.43-2.77v6.35l2.63-2.71v5.26l-2.21-2.41-.88.41c.34,1.61.19,4.14,1.12,4.63,2,1.06,4-.12,5.19-2.38.53,3.24.35,3.47-2.61,3.47C324.15,197.93,321.66,197.92,319,197.92Z" transform="translate(-23.5 -20.47)"/><path class="cls-1" d="M397.76,185.38h9.64v2.48l-5.21-2.4v6.07l2.6-2.45v5l-2.09-2.2-.79.26c.25,1.61.06,3.52.87,4.76s3.61-.2,5.8-2.91l-.59,3.76h-9.93C399.25,195.79,399.1,186.93,397.76,185.38Z" transform="translate(-23.5 -20.47)"/><path class="cls-1" d="M265.93,197.83h-4.24l-2.94-5.25-2.52,4.87.58.32h-3.44c5.35-4.58,5.45-5.71,1.16-11.06-.3-.37-.65-.71-1.16-1.27h4.72l2,4.15c2.6-2.06,2.77-2.51,1.53-4.16h3.72l-4.45,5.11C262.61,193,264.22,195.34,265.93,197.83Z" transform="translate(-23.5 -20.47)"/><path class="cls-1" d="M66.25,26.73c2.71,3.79,2.37,8.94-.92,11.58a4.82,4.82,0,0,1-4.09.78c-.86-.39-1.51-2.45-1.39-3.68C60.25,31.33,63.35,29.1,66.25,26.73Z" transform="translate(-23.5 -20.47)"/><path class="cls-1" d="M179.44,26.59c3.12,2.46,6.17,4.71,6.58,8.79.12,1.24-.48,3.31-1.34,3.7a4.87,4.87,0,0,1-4.1-.75C177.41,35.91,177,31.37,179.44,26.59Z" transform="translate(-23.5 -20.47)"/><path class="cls-1" d="M291,185.47v3.9c-1.12-3-3-3.59-5.52-3.15v5.35l2.72-2.48v4.51l-1.85-2.19-1.3.8c.36,1.6.24,4.16,1.17,4.62,2.3,1.15,4.23-.45,5.81-3.28-.27,1.89-.43,3-.61,4.21h-9.94c1.33-2.31,1.14-10.55-.42-12.29Z" transform="translate(-23.5 -20.47)"/><path class="cls-1" d="M170.64,195.87c-3.69,1.41-7.32,2.87-11.15.9-1-.53-2.35-2.1-2.2-3a4.68,4.68,0,0,1,2.71-2.89C164,189.46,168.11,191.45,170.64,195.87Z" transform="translate(-23.5 -20.47)"/><path class="cls-1" d="M75.3,195.73c2.55-4.24,6.53-6.23,10.38-4.87a4.86,4.86,0,0,1,2.88,3c.15.89-1.3,2.45-2.4,3.07C83.51,198.39,79.66,197.83,75.3,195.73Z" transform="translate(-23.5 -20.47)"/><path class="cls-1" d="M56.53,33.74c2.65,3.53,3.31,6.91,1.5,10.57-.89,1.79-2.28,3.16-4.43,2.61s-2.33-2.53-2.22-4.35C51.61,38.87,54.13,36.49,56.53,33.74Z" transform="translate(-23.5 -20.47)"/><path class="cls-1" d="M189.41,33.86c2.58,2.83,5.34,5.41,5,9.46a4.94,4.94,0,0,1-1.95,3.48c-1.58.89-3.08-.25-4.1-1.66C186,41.93,186.35,37.77,189.41,33.86Z" transform="translate(-23.5 -20.47)"/><path class="cls-1" d="M331.27,185.49c2.43-.59,4.4-.46,5.86,1.95a45.63,45.63,0,0,0,3.74,4.75l.68-.11c-.18-2.19-.35-4.37-.53-6.66h2.08c-1.92,4-.28,8.33-1.16,12.94l-8-9.8c0,3.09-1.6,6.26.73,9.19h-2.9C333.35,195.25,333.09,187.25,331.27,185.49Z" transform="translate(-23.5 -20.47)"/><path class="cls-1" d="M637.55,185.35h2.27c-2.19,4-.22,8.42-1.34,13l-7.9-9.66c-.24,3.07-1.32,6.15.41,9.13h-2.73c1.61-2.37,1.34-10.52-.46-12.23,2.34-.65,4.23-.63,5.71,1.61,1.18,1.79,2.65,3.39,4,5.07l.65-.18C638,189.85,637.75,187.63,637.55,185.35Z" transform="translate(-23.5 -20.47)"/><path class="cls-1" d="M65.39,189.67c3-3.74,6.73-5.18,10.32-3.66a5.29,5.29,0,0,1,2.78,3.18c.42,1.77-1.3,2.58-2.82,3.07C72.67,193.22,68.56,192.19,65.39,189.67Z" transform="translate(-23.5 -20.47)"/><path class="cls-1" d="M180.54,190c-3.32,1.77-6.61,3.68-10.49,2.16-1.12-.44-2.55-1.93-2.55-2.94s1.34-2.56,2.46-3.09C173.54,184.38,178,186.09,180.54,190Z" transform="translate(-23.5 -20.47)"/><path class="cls-1" d="M527.36,185.53c2.67-.57,4.69-.57,6.15,1.87a42.74,42.74,0,0,0,3.72,4.71l.68-.14c-.18-2.19-.36-4.37-.54-6.61h2.22c-2.12,4-.22,8.43-1.28,13-2.75-3.36-5.33-6.5-7.9-9.65-.19,3.11-1.44,6.2.46,9.13h-2.28a47.91,47.91,0,0,0,.4-6.09C528.88,189.69,530.05,187.27,527.36,185.53Z" transform="translate(-23.5 -20.47)"/><path class="cls-1" d="M541.13,185.54c2.8-.78,4.78-.28,6.25,2.12a54.92,54.92,0,0,0,3.88,5c.1-2.8.93-5-1-7.2h2.81c-1.83,4.1-.18,8.43-1.12,12.93-2.78-3.39-5.36-6.55-7.93-9.7-.15,3.13-1.57,6.26.61,9.18H541.8C543.35,195.26,543,187.19,541.13,185.54Z" transform="translate(-23.5 -20.47)"/><path class="cls-1" d="M48.15,42.23c3.19,3.08,4.26,7.07,2.4,10.46a5.42,5.42,0,0,1-3.43,2.47c-1.8.29-2.45-1.45-2.82-3C43.59,49.14,45.15,45.15,48.15,42.23Z" transform="translate(-23.5 -20.47)"/><path class="cls-1" d="M197.91,42c2.16,3.07,4.51,6,3.67,10.1-.32,1.61-1,3.3-2.81,3a5.47,5.47,0,0,1-3.44-2.46C193.46,49.32,194.53,45.39,197.91,42Z" transform="translate(-23.5 -20.47)"/><path class="cls-1" d="M160.08,37.23c2-4.21,6.48-6.21,10.31-4.26a4.58,4.58,0,0,1,2.3,3.18c0,.87-1.44,2.18-2.52,2.66C167.49,40,163.28,39.17,160.08,37.23Z" transform="translate(-23.5 -20.47)"/><path class="cls-1" d="M56.23,182.87c2.78-2.94,5.94-4.17,9.74-3.14,1.89.51,3.57,1.55,3.38,3.82s-2.18,2.77-4.08,2.93C61.69,186.79,59,184.87,56.23,182.87Z" transform="translate(-23.5 -20.47)"/><path class="cls-1" d="M40.81,51c3,2.36,4.62,5.21,4.19,9-.27,2.38-1.6,4.11-3.38,4.1-2.39,0-3-1.83-3.43-3.71C37.49,56.88,39.05,54,40.81,51Z" transform="translate(-23.5 -20.47)"/><path class="cls-1" d="M86.23,38a91.89,91.89,0,0,1-9.35,1.11C75,39.16,73,38.28,73,36s1.88-3.08,3.79-3.48C80.67,31.66,84,33.43,86.23,38Z" transform="translate(-23.5 -20.47)"/><path class="cls-1" d="M211,60.55c1.41,3.36,2.67,6.57,1.26,10.12-.66,1.66-1.61,3.12-3.72,2.76s-2.62-2-2.75-3.79C205.51,65.56,207.57,62.77,211,60.55Z" transform="translate(-23.5 -20.47)"/><path class="cls-1" d="M189.7,182.87c-3,2.1-5.82,4.07-9.5,3.58-1.74-.23-3.48-.7-3.66-2.84s1.29-3.27,3.08-3.81C183.47,178.66,186.74,179.82,189.7,182.87Z" transform="translate(-23.5 -20.47)"/><path class="cls-1" d="M48.31,174.87c3.42-2.67,6.76-3.5,10.47-1.72,1.68.81,3,2.26,2.2,4a5,5,0,0,1-3.5,2.27C53.66,179.88,51.05,177.43,48.31,174.87Z" transform="translate(-23.5 -20.47)"/><path class="cls-1" d="M41.56,166.25c3.46-2.62,7.38-2.86,10.44-.72,1.43,1,2.35,2.3,1.84,4.1-.56,2-2.22,2.21-3.89,2.1C46.13,171.49,43.81,169,41.56,166.25Z" transform="translate(-23.5 -20.47)"/><path class="cls-1" d="M204.57,166.89c-2.45,1.57-4.76,3.45-7.39,4.6-2.33,1-4.61-.1-5.12-1.76-.55-1.82.55-3.64,2.82-4.77,3.34-1.65,6.36-.74,9.3.94Z" transform="translate(-23.5 -20.47)"/><path class="cls-1" d="M34.79,60.5c3.57,2.3,5.59,5.11,5.28,9.19-.13,1.81-.84,3.41-2.82,3.75s-3-1.18-3.69-2.82C32.14,67.14,33.53,64,34.79,60.5Z" transform="translate(-23.5 -20.47)"/><path class="cls-1" d="M197.45,175c-2.59,2.39-5.19,4.83-9,4.43a4.94,4.94,0,0,1-3.5-2.25c-.81-1.74.47-3.2,2.13-4.08C190.32,171.39,194.36,172.09,197.45,175Z" transform="translate(-23.5 -20.47)"/><path class="cls-1" d="M215.74,70.71c1,3.44,1.75,6.57.28,9.72-.82,1.75-2,3.4-4.25,2.72-2.09-.63-2.3-2.47-2.19-4.35C209.8,74.88,212.11,72.54,215.74,70.71Z" transform="translate(-23.5 -20.47)"/><path class="cls-1" d="M205,50.92c1.84,3,3.14,5.78,2.75,9.1-.29,2.48-1.61,4.09-3.35,4.09s-3.16-1.57-3.5-4C200.38,56.3,202,53.46,205,50.92Z" transform="translate(-23.5 -20.47)"/><path class="cls-1" d="M30.17,70.92c4.26,1.72,6.55,5,6.06,9-.15,1.15-1.16,2.89-2,3.08a4.63,4.63,0,0,1-3.61-1.49C28.56,79.22,28.58,75.7,30.17,70.92Z" transform="translate(-23.5 -20.47)"/><path class="cls-1" d="M26.62,81.51c4.46,1.09,7.48,4.54,7.17,8.41-.09,1.16-1,2.84-1.89,3.2s-2.71-.33-3.52-1.15C25.45,89,26.21,85.31,26.62,81.51Z" transform="translate(-23.5 -20.47)"/><path class="cls-1" d="M31,146.73c3.8-1.63,7.56-1.09,10,1.39,1.35,1.36,2.17,3,1,4.78s-2.72,1.51-4.34,1C34.23,152.73,32.6,149.79,31,146.73Z" transform="translate(-23.5 -20.47)"/><path class="cls-1" d="M214.88,146.72c-1.75,3.22-3.35,6.32-7.15,7.28-1.6.4-3.42.45-3.94-1.26a5.28,5.28,0,0,1,.72-4.14C206.66,145.66,210.65,145,214.88,146.72Z" transform="translate(-23.5 -20.47)"/><path class="cls-1" d="M35.66,156.66c3.48-1.71,6.69-2.06,9.83.08,1.62,1.11,2.9,2.55,2.07,4.69s-2.75,2-4.54,1.64C39.43,162.33,37.64,159.54,35.66,156.66Z" transform="translate(-23.5 -20.47)"/><path class="cls-1" d="M24.51,92.31c4.61.87,7.68,3.61,7.9,7.36.08,1.24-.57,3.17-1.49,3.65s-2.87-.12-3.81-.92C24.05,99.79,24.34,96.11,24.51,92.31Z" transform="translate(-23.5 -20.47)"/><path class="cls-1" d="M23.54,114.32c4,0,7.05,1.09,9,4.47,1,1.74,1.41,3.6-.31,5.09s-3.24.47-4.62-.57C24.69,121.12,24.23,117.8,23.54,114.32Z" transform="translate(-23.5 -20.47)"/><path class="cls-1" d="M222.26,114.59c-.52,3.13-1,6.28-3.66,8.46-1.45,1.22-3.2,2.39-5,.78s-1.16-3.54-.09-5.3A8.38,8.38,0,0,1,222.26,114.59Z" transform="translate(-23.5 -20.47)"/><path class="cls-1" d="M222.4,103.18c-.11,3.55-.36,6.78-2.82,9.28-1.28,1.29-2.87,2.51-4.73,1.26s-1.58-3.2-.81-5C215.53,105.13,218.49,103.75,222.4,103.18Z" transform="translate(-23.5 -20.47)"/><path class="cls-1" d="M24.85,125.22c4.25-.28,7.54.57,9.71,4,1,1.54,1.33,3.25-.05,4.69s-3,.91-4.47.05C26.82,132.06,25.88,128.82,24.85,125.22Z" transform="translate(-23.5 -20.47)"/><path class="cls-1" d="M218.48,136.29c-1.32,3.25-2.54,6.59-6.17,7.82-1.22.41-3.57.2-4-.57a5.13,5.13,0,0,1,.16-4.37C210.17,136.07,214.32,135,218.48,136.29Z" transform="translate(-23.5 -20.47)"/><path class="cls-1" d="M219.25,81.64c.51,3.55,1.15,7.15-1.53,10.1-.82.91-2.71,1.72-3.67,1.37s-1.84-2.18-1.92-3.42C211.91,85.86,215.2,82.26,219.25,81.64Z" transform="translate(-23.5 -20.47)"/><path class="cls-1" d="M210.22,156.7c-2.13,3-4.05,6-8,6.47-1.6.2-3.46.17-3.78-1.67a5.48,5.48,0,0,1,1.17-4C202,154.75,205.84,154.58,210.22,156.7Z" transform="translate(-23.5 -20.47)"/><path class="cls-1" d="M27.22,136.07c3.55-.57,6.48-.61,8.94,1.61a5.3,5.3,0,0,1,1.76,2.23c.27,1.16.43,2.8-.19,3.58a3.56,3.56,0,0,1-3.35.87,18.26,18.26,0,0,1-4.93-4C28.48,139.32,28.06,137.75,27.22,136.07Z" transform="translate(-23.5 -20.47)"/><path class="cls-1" d="M221.35,92.42c.23,3.5.49,7.07-2.29,9.72a5.09,5.09,0,0,1-4,1.26c-1.82-.45-1.87-2.4-1.6-4.09C214.05,95.7,217.19,92.93,221.35,92.42Z" transform="translate(-23.5 -20.47)"/><path class="cls-1" d="M500.48,192.48c.19,1.89.36,3.51.54,5.26h-4c1-1.88.92-10.71-.16-12.3,2.11,0,4.2-.11,6.28,0,1.86.11,3.27.95,3.38,3.1s-1.31,3.16-3.22,3.58C502.47,192.31,501.66,192.34,500.48,192.48Zm.34-6.32v5.22a2.24,2.24,0,0,0,2.54-2.46C503.43,187.34,502.8,186.28,500.82,186.16Z" transform="translate(-23.5 -20.47)"/><path class="cls-1" d="M23.5,103.22c4.16.51,7.2,2.16,8.58,6,.58,1.62.59,3.28-1,4.4s-3.12.31-4.37-.81C23.89,110.3,23.58,106.89,23.5,103.22Z" transform="translate(-23.5 -20.47)"/><path class="cls-1" d="M221,125.45c-1,3.45-1.93,6.89-5.49,8.68-1.44.73-3.27,1.2-4.13-.41a5.42,5.42,0,0,1-.09-4.24C212.78,126.14,216.71,124.63,221,125.45Z" transform="translate(-23.5 -20.47)"/><path class="cls-1" d="M168.94,42.38c2.93-3.92,6.26-5.13,9.92-3.69,1.73.67,3.26,1.88,2.61,3.74-.39,1.12-2,2.18-3.31,2.52C175.53,45.66,172.66,44.66,168.94,42.38Z" transform="translate(-23.5 -20.47)"/><path class="cls-1" d="M77,42.47c-2.93,1.64-5.75,3-9.06,2.56-1.61-.23-3.34-.59-3.57-2.63s1.19-3.2,3-3.83C71,37.31,74.41,38.68,77,42.47Z" transform="translate(-23.5 -20.47)"/><path class="cls-1" d="M84.22,179c3,1.89,5.93,3.6,6.61,7.21.22,1.14-.16,3.11-.92,3.53a4.75,4.75,0,0,1-4-.18C82.56,187.61,81.94,183.41,84.22,179Z" transform="translate(-23.5 -20.47)"/><path class="cls-1" d="M161.66,179c2.11,3.8,1.77,7.55-.84,9.93-1.41,1.29-3,2.06-4.84.93s-1.38-3-.75-4.57C156.42,182.26,159,180.6,161.66,179Z" transform="translate(-23.5 -20.47)"/><path class="cls-1" d="M69,48.29c-2.75,2.08-5.48,4-8.92,3.42a4.84,4.84,0,0,1-3.27-2.22c-.76-1.69.51-3,2.07-3.86C62.16,43.89,65.93,44.84,69,48.29Z" transform="translate(-23.5 -20.47)"/><path class="cls-1" d="M176.94,48.32c2.62-3.25,6.22-4.35,9.52-2.94,1.77.75,3.13,1.92,2.75,4s-2.09,2.28-3.74,2.37C182.09,52,179.48,50.25,176.94,48.32Z" transform="translate(-23.5 -20.47)"/><path class="cls-1" d="M76.09,174.16c2.68,2.18,5.29,4.24,5.49,7.78.07,1.22-.61,3.26-1.44,3.56a4.79,4.79,0,0,1-4-.95C73.44,182.26,73.52,178.32,76.09,174.16Z" transform="translate(-23.5 -20.47)"/><path class="cls-1" d="M62.18,54.89c-2.62,2.41-5.13,4.72-8.79,4.28-1.14-.14-2.78-1.11-3.06-2a4.32,4.32,0,0,1,1.31-3.5C54.31,51.13,58.37,51.67,62.18,54.89Z" transform="translate(-23.5 -20.47)"/><path class="cls-1" d="M183.61,54.79c2.41-1.84,4.63-3,7.29-2.55a6.34,6.34,0,0,1,3.45,1.51,4.59,4.59,0,0,1,1.15,3.57c-.21.84-1.84,1.73-2.92,1.85C188.83,59.6,186.3,57.29,183.61,54.79Z" transform="translate(-23.5 -20.47)"/><path class="cls-1" d="M170,174.37c1.8,3,2.61,6,.64,9.25-1.21,2-3.32,2.87-4.89,2.08-2.07-1-2-3.09-1.29-4.62a64.23,64.23,0,0,1,4.61-7.1Z" transform="translate(-23.5 -20.47)"/><path class="cls-1" d="M177.08,168.45c2.31,3,3.46,5.91,1.95,9.3-.83,1.84-2.16,3.22-4.34,2.68s-2.18-2.37-2.09-4.15C172.78,173,174.79,170.84,177.08,168.45Z" transform="translate(-23.5 -20.47)"/><path class="cls-1" d="M600.75,197.8h-3.94V185.55l-3.6,2.57v-2.73h11V188l-3.5-2.35Z" transform="translate(-23.5 -20.47)"/><path class="cls-1" d="M68.81,168.49c2.52,2.49,4.72,5,4.43,8.6-.1,1.15-1.09,3-1.86,3.13a5.05,5.05,0,0,1-3.87-1.5C65.25,176.14,65.8,172.58,68.81,168.49Z" transform="translate(-23.5 -20.47)"/><path class="cls-1" d="M189.52,62c3.21-2,6.27-2.86,9.52-.85,1.6,1,2.81,2.4,2,4.44s-2.72,2-4.52,1.68C193.52,66.66,191.52,64.57,189.52,62Z" transform="translate(-23.5 -20.47)"/><path class="cls-1" d="M311.57,185.41c-.36.68-1,1.32-1,2-.11,2.75-.1,5.51,0,8.27,0,.48.69,1.38,1,1.35a12.78,12.78,0,0,0,4-1c.66-.32.92-1.43,1.78-2.14-.16,1.26-.32,2.51-.49,3.92H306.71c1.13-2.19.92-10.83-.48-12.35Z" transform="translate(-23.5 -20.47)"/><path class="cls-1" d="M51.49,69.88c-1.89,3.05-3.84,5.78-7.55,6-1.09.07-2.84-.55-3.2-1.34a4.48,4.48,0,0,1,.51-3.71C43.26,67.93,47.24,67.61,51.49,69.88Z" transform="translate(-23.5 -20.47)"/><path class="cls-1" d="M194.37,69.72c3.33-1.46,6.34-2.13,9.24.06,1.56,1.18,2.72,2.69,1.7,4.77s-2.83,1.65-4.46,1.21C197.74,74.94,196,72.57,194.37,69.72Z" transform="translate(-23.5 -20.47)"/><path class="cls-1" d="M62.39,162c2.08,2.57,3.69,5.14,3.48,8.44-.12,1.7-.58,3.37-2.51,3.69s-3.16-1-3.81-2.7C58.16,167.77,59.68,164.87,62.39,162Z" transform="translate(-23.5 -20.47)"/><path class="cls-1" d="M56.3,62.11c-2,2.5-4.07,4.7-7.25,5.21-1.63.26-3.37.29-4.16-1.57s.24-3.44,1.8-4.53C49.36,59.35,52.78,59.65,56.3,62.11Z" transform="translate(-23.5 -20.47)"/><path class="cls-1" d="M183.5,162c2.56,2.75,4.17,5.52,3,9.16-.61,1.82-1.74,3.28-3.84,3s-2.51-2.08-2.61-3.84C179.82,167.14,181.45,164.66,183.5,162Z" transform="translate(-23.5 -20.47)"/><path class="cls-1" d="M44.86,86.69c-.89,3-2.07,5.9-5.16,7.16-1.19.48-3.57.44-4.06-.28a5.09,5.09,0,0,1,0-4.35C37.14,86.21,41,85.32,44.86,86.69Z" transform="translate(-23.5 -20.47)"/><path class="cls-1" d="M396,194l-.39,3.72H385.49c1.08-2.06.89-10.86-.41-12.35h5a13.22,13.22,0,0,0-.66,2.6,45.68,45.68,0,0,0,0,6.08c.09,1,.48,2.65,1.13,2.88a3.33,3.33,0,0,0,4.22-1.44c.31-.53.58-1.09.86-1.64Z" transform="translate(-23.5 -20.47)"/><path class="cls-1" d="M201,86.84c3.7-1.79,8.33-.43,9.64,3a4.46,4.46,0,0,1-.39,3.73c-.57.69-2.45.87-3.49.52C203.37,93,202.11,89.94,201,86.84Z" transform="translate(-23.5 -20.47)"/><path class="cls-1" d="M189,155c2.92,2.34,4.74,4.88,4.09,8.51-.32,1.84-1.09,3.49-3.32,3.56s-2.75-1.61-3.13-3.35C185.91,160.46,187.39,157.86,189,155Z" transform="translate(-23.5 -20.47)"/><path class="cls-1" d="M203.47,113.49c3.87-.26,7.14,1.85,8,5.13.42,1.64.45,3.33-1.22,4.35s-3.12.07-4.28-1.15C203.71,119.47,203.4,116.54,203.47,113.49Z" transform="translate(-23.5 -20.47)"/><path class="cls-1" d="M193.69,147.39c4.11,2.6,5.76,5.47,4.74,8.87a5,5,0,0,1-2.72,2.86c-1.62.59-2.61-.8-3.18-2.26C191.24,153.56,192.18,150.54,193.69,147.39Z" transform="translate(-23.5 -20.47)"/><path class="cls-1" d="M203.76,104.38c4.24-.4,7.68,1.47,8.44,4.88.26,1.2-.11,3.17-.94,3.81s-2.77.3-3.84-.3C205,111.4,203.89,108.46,203.76,104.38Z" transform="translate(-23.5 -20.47)"/><path class="cls-1" d="M57,155.18c1.81,2.87,3.22,5.87,2.05,9.31-.35,1-1.64,2.35-2.52,2.37a4.3,4.3,0,0,1-3.15-1.94C51.53,161.69,53.11,157.69,57,155.18Z" transform="translate(-23.5 -20.47)"/><path class="cls-1" d="M47.78,77.9c-1.36,3-2.81,5.59-5.85,6.77-1.56.62-3.27,1-4.39-.66s-.5-3.41.85-4.81C41.05,76.45,44.2,76.92,47.78,77.9Z" transform="translate(-23.5 -20.47)"/><path class="cls-1" d="M45.48,130.74c.75,3.31,1.1,6.33-.66,9.16-.88,1.42-2,2.76-4,2s-2.2-2.44-2-4.27C39.36,133.86,41.92,132.08,45.48,130.74Z" transform="translate(-23.5 -20.47)"/><path class="cls-1" d="M52.23,147.45c1.52,3.07,2.56,6.22,1,9.49-.48,1-2.08,2.26-2.94,2.11a4.43,4.43,0,0,1-2.8-2.68C46.39,152.87,48.2,149.73,52.23,147.45Z" transform="translate(-23.5 -20.47)"/><path class="cls-1" d="M202.77,95.37c3.63-.44,6.74-.11,8.75,3.13,1,1.62,1.43,3.47-.14,4.9s-3.21.65-4.66-.42C204.19,101.12,203.4,98.37,202.77,95.37Z" transform="translate(-23.5 -20.47)"/><path class="cls-1" d="M42.2,104.4c-.13,3.32-.82,6.45-3.77,8.39-1,.63-2.94.94-3.62.39a4.54,4.54,0,0,1-1.18-3.73C34.28,106,37.88,104,42.2,104.4Z" transform="translate(-23.5 -20.47)"/><path class="cls-1" d="M200.6,131c4,1.18,6.23,3.6,6.39,7,.08,1.72-.21,3.35-2.06,4s-3-.66-3.92-2.08C199.58,137.56,199.43,133.78,200.6,131Z" transform="translate(-23.5 -20.47)"/><path class="cls-1" d="M198.12,77.93c3.33-1,6.31-1.42,9,.87,1.76,1.52,2.38,3.76,1.31,5.16-1.37,1.8-3.16,1.32-4.83.56C200.84,83.27,199.44,80.84,198.12,77.93Z" transform="translate(-23.5 -20.47)"/><path class="cls-1" d="M202.44,122.09c5,1.2,7.55,3.71,7.24,7.4a4.07,4.07,0,0,1-1.77,3,4,4,0,0,1-3.37-1C201.87,129,202,125.63,202.44,122.09Z" transform="translate(-23.5 -20.47)"/><path class="cls-1" d="M48.35,139.31c1.25,3.26,1.94,6.52,0,9.63-.59.95-2.27,1.94-3.22,1.74S43,149,42.71,147.85C41.87,144.47,44,141.42,48.35,139.31Z" transform="translate(-23.5 -20.47)"/><path class="cls-1" d="M197.51,139.34c4,1.78,6,4.36,5.82,7.67-.08,1.79-.59,3.46-2.63,3.83s-3-1.05-3.6-2.59C195.88,145.24,196.36,142.28,197.51,139.34Z" transform="translate(-23.5 -20.47)"/><path class="cls-1" d="M43.48,122.24c.29,3.09.49,6.16-1.6,8.81-1,1.26-2.21,2.29-3.94,1.58s-2-2.21-1.82-3.85C36.46,125.25,39.23,122.75,43.48,122.24Z" transform="translate(-23.5 -20.47)"/><path class="cls-1" d="M42.43,113.47c.07,3.2-.21,6.36-2.81,8.57-.91.78-2.89,1.31-3.77.83s-1.55-2.4-1.45-3.62C34.67,115.72,38.3,113.21,42.43,113.47Z" transform="translate(-23.5 -20.47)"/><path class="cls-1" d="M43.13,95.41c-.7,3.2-1.5,6.26-4.49,7.83-1.09.58-3.28.78-3.9.14a4.9,4.9,0,0,1-.69-4.11C35.05,96.11,38.14,94.91,43.13,95.41Z" transform="translate(-23.5 -20.47)"/><path class="cls-1" d="M593,197.78h-4c-.38-1.13-.5-2.91-1.16-3.15a6.72,6.72,0,0,0-4.14.26c-.42.15-.32,1.81-.48,2.91h-2.16c2-4.18,3.95-8.35,6.07-12.86C589.17,189.35,591.09,193.53,593,197.78Zm-5.47-4.38L586,189.59l-1.72,3.81Z" transform="translate(-23.5 -20.47)"/><path class="cls-1" d="M422.18,197.85h-4.05c-.39-1.24-.47-2.91-1.06-3.12a7.09,7.09,0,0,0-4.13,0c-.44.13-.41,1.81-.65,3h-2.08l6.05-12.86C418.3,189.4,420.21,193.55,422.18,197.85Zm-8.83-4.48h3.31l-1.61-3.76Z" transform="translate(-23.5 -20.47)"/><path class="cls-1" d="M471.76,185.74v2.81a14.56,14.56,0,0,0-3-2.45c-.56-.26-1.6.5-2.42.8.32.73.45,1.68,1,2.14a26.83,26.83,0,0,0,3.15,1.8c1.73,1.06,2.85,2.52,2.1,4.65s-2.49,2.88-4.65,2.68c-1.24-.11-2.47-.34-3.87-.54V194l-.74.86a18.88,18.88,0,0,0,3.87,2.28c.87.27,2-.38,3-.62-.41-.93-.61-2.09-1.29-2.73-.91-.87-2.24-1.27-3.3-2a3.48,3.48,0,0,1-1.44-4.47c.77-1.9,2.4-2.53,4.38-2.21C469.61,185.26,470.64,185.51,471.76,185.74Z" transform="translate(-23.5 -20.47)"/><path class="cls-1" d="M279.11,195.91a14.33,14.33,0,0,1-2.38,1.78,7.18,7.18,0,0,1-8-1.63,6.59,6.59,0,0,1-.54-7.71,6.92,6.92,0,0,1,7.52-3.17c1.08.24,2.18.35,3.48.56v2.76c-.78-.58-1.73-1.72-2.9-2a5.21,5.21,0,0,0-3.79.44c-2.25,1.41-2.53,6.52-.75,8.92,1.42,1.93,3.65,1.82,7-.36Z" transform="translate(-23.5 -20.47)"/><path class="cls-1" d="M293.71,197.78c1.68-2,1.6-10.65-.06-12.43h5.15A11.34,11.34,0,0,0,298,188a51.42,51.42,0,0,0,0,6.33,5.61,5.61,0,0,0,.9,2.58,15.87,15.87,0,0,0,4.38-1.28c.51-.23.68-1.21,1.4-1.79-.13,1.26-.25,2.53-.39,3.92Z" transform="translate(-23.5 -20.47)"/><path class="cls-1" d="M356.55,195.67c-1.32,2.54-3.67,2.75-6.12,2.45a5.89,5.89,0,0,1-5.23-4.44,6.87,6.87,0,0,1,8.57-8.4,26,26,0,0,0,3,.44v3.19c-1-.89-1.86-2.22-3-2.56a5,5,0,0,0-3.75.73c-2,1.45-2.16,6.62-.49,8.8C351,197.73,353,197.62,356.55,195.67Z" transform="translate(-23.5 -20.47)"/><path class="cls-1" d="M575.62,198.51l-5.78-13H574c-.33,3,1.91,5.26,2.62,8.07,2.71-3.41,3.57-6.68,1.91-8.08h3.27Z" transform="translate(-23.5 -20.47)"/><path class="cls-1" d="M526.1,185.36c-1.49,1.71-1.64,10.38-.44,12.45h-4.87c1.42-2,1.32-10.74-.16-12.45Z" transform="translate(-23.5 -20.47)"/><path class="cls-1" d="M494.46,185.44c-1.59,1.69-1.67,10.33,0,12.32h-4.8c1-2.4.77-10.7-.51-12.32Z" transform="translate(-23.5 -20.47)"/><path class="cls-1" d="M606.57,185.35h4.87c-1.65,1.87-1.71,10.38,0,12.41h-4.71A27.27,27.27,0,0,0,606.57,185.35Z" transform="translate(-23.5 -20.47)"/><path class="cls-1" d="M126.72,188.49c-2,0-3.6-.78-3.16-3a4.14,4.14,0,0,1,2.34-2.78c.79-.22,2.44.83,2.92,1.74,1.63,3-.75,6.41-4.13,7l2.77-2.15Z" transform="translate(-23.5 -20.47)"/><path class="cls-1" d="M117.9,191.54l2.72-2.21-1.16-.25c-.9-1.08-2.28-2-2.59-3.26-.4-1.59.68-3,2.49-3.22s2.71.84,3.1,2.39C123.28,188.24,121.32,190.86,117.9,191.54Z" transform="translate(-23.5 -20.47)"/><path class="cls-1" d="M111.72,183.47l2.54-1.05v9h-2.54Z" transform="translate(-23.5 -20.47)"/><path class="cls-1" d="M134.29,184.38l-3.86.59c0-2.63,0-2.63,5.55-2.14L133,191.76l-.89-.23c.32-1.12.63-2.25,1-3.36S133.82,185.89,134.29,184.38Z" transform="translate(-23.5 -20.47)"/><path class="cls-1" d="M122.71,173.94A65.53,65.53,0,0,1,57.14,108.5c0-36.07,29.63-65.67,65.57-65.53,36.47.13,65.44,29.54,65.41,66.39C188.1,144.7,158.47,173.94,122.71,173.94ZM162.05,136c-.36.06-.86,0-1.05.18-2.35,2.55-4.65,5.15-7.05,7.83l1.79,1.61c.34-1.32.69-2.7,1.17-4.6l9.08,8.51c.85-.93,1.9-2.07,3.16-3.46-2.1.25-6.88-3.47-9.91-7.52l4.34-1.3L162,135.93c3.09-2.53,6.68-1.7,10.09-1.26,1.14.15,2.13,1.52,3.2,2.34l2-4.15c-4.56.25-6.78-3.55-9.53-9.3-.53,1.06-1,2-1.46,3,1.93-.43,3.75,1.59,4.59,5l-7-.32C163.48,132.43,162.77,134.22,162.05,136Zm-78.21,0-1.31-3.7c-.6.82-.89,1.6-1.43,1.9-2.13,1.16-4.31,2.25-6.53,3.23-1.71.76-3,0-3.8-1.58-.87-1.73.11-2.77,1.52-3.53,2-1.07,4-2.15,6.06-3.09a7.75,7.75,0,0,1,2.39-.22l-2.11-4a19.42,19.42,0,0,1-2.15,1.65c-1.69,1-3.46,1.76-5.16,2.7-2.6,1.44-3.16,3.41-1.85,6.12s3.33,3.6,5.93,2.5c1.93-.81,3.79-1.83,5.65-2.8,1.21-.63,2.17-.56,2.81.77.16.82.74,2,.41,2.38-2.55,2.58-5.27,5-8.06,7.55l1.42,1.47c.81-3.66,4.06-4.86,6.52-7-.5,4.12-1,8.24-1.55,12.71,3.7-2.66,6.08-6.5,10-8.43l-1.09-1.15-4.78,5a26.77,26.77,0,0,1,.26-6.35C87.39,138.73,86.9,137.75,83.84,136ZM123,67.37a40.78,40.78,0,0,0-41,41c-.09,22.44,18.24,41,40.49,41,23.11,0,41.43-18,41.44-40.75A40.72,40.72,0,0,0,123,67.37Zm19-1.49.24,0a.76.76,0,0,0-.06-.2c-.29-.46-.93-1-.84-1.35.92-3.52,1.93-7,3-10.49.1-.32.68-.49,1.18-.83l-5.77-1.61c2.17,2.1.63,4-.09,5.49-.25.51-2.79-.08-4.88-.2l2.54-6-4.54-1.28c.83,2.67-2,11.73-4.1,12.7l4.85,1.4,1.29-6.31,4.73,1.35-2.2,6ZM83.72,63.22c2.49.05,8.37,8,8.2,10.66,1.77-1.25,3.5-2.44,5.2-3.67s3.34-3,2.33-5.06c-.61-1.28-2.61-1.89-4-2.79-.28-.94-.27-2.67-1.14-3.53-1.46-1.46-3.31-.68-4.87.4C87.68,60.46,85.89,61.72,83.72,63.22Zm75.79,1.46a7.64,7.64,0,0,0-7.36-7.25,7.19,7.19,0,0,0-6.87,7.13,7.46,7.46,0,0,0,7.09,7.23A7.21,7.21,0,0,0,159.51,64.68Zm-45.87-6.33a6.82,6.82,0,0,0-6.78-7.06c-4.28,0-7.62,3.05-7.57,6.9s3.21,7.19,6.83,7.19A7.27,7.27,0,0,0,113.64,58.35ZM136,161.12c.36-1.64,1.11-3.23.86-4.63-.15-.85-1.88-2-2.86-2a60.1,60.1,0,0,0-7.5,1A51.93,51.93,0,0,1,128.79,168l3.49-.64c-.44-1.88-.85-3.65-1.27-5.42l.67-.34a29,29,0,0,1,2.89,2.76c1.55,1.93,3.27,2.63,5.23,1.52Zm-23.1,6.25,9.51.77.74-3.35c-2.16,2.11-5.44,3.17-6,2-.66-1.41-.38-3.27-.5-4.93l.86-.27,2.18,2.42c.14-1.71.27-3.33.4-4.93-.92.76-1.71,1.4-2.5,2l-.55-.38.32-4.76c2.59-.31,4.42.37,5.74,2.55-.21-1.2-.61-2.82-1.31-3a67,67,0,0,0-7.65-.75A46.25,46.25,0,0,1,112.85,167.37ZM115.75,49v2.6L120,49.18v13H124c-1.2-4.12-.5-8.27-.7-12.38l.69-.5,3.52,2.19V49Zm27,111.87,1.42,2.91c1.27-.35,2.19-.63,3.12-.85,2.37-.55,3.92-2.29,3.86-4.35s-1.43-3.31-4.1-3.63a19.59,19.59,0,0,1-3.37-.25c-.78-.23-1.37-1.07-2-1.63.71-.66,1.39-1.82,2.12-1.85,1.24,0,2.51.62,3.8,1l-1.15-2.38c-1.12.23-2,.39-2.9.59-2,.47-3.41,1.58-3.43,3.79s1.28,3.24,3.28,3.53a25.73,25.73,0,0,1,4.07.45c.83.26,1.42,1.25,2.12,1.91-.7.68-1.43,1.94-2.11,1.91A21.28,21.28,0,0,1,142.76,160.91Zm-41.64,3.49,10.38-10-2.67-1c.71,1.93-1.76,5.17-5,6.73v-8.7l-3.47-1.32C100.58,154.71,100.84,159.32,101.12,164.4Zm-2.69-15.85-3.26-2.21a41.19,41.19,0,0,1-7.07,10.51l4,2.72C91.64,157.58,95.5,151,98.43,148.55Zm50.65-1.16c2.45,3.6,5.62,6.44,7,10.61l3.35-2.44a46.93,46.93,0,0,1-7.5-10.22Zm25.71-57.7c-1.24-1-1.94-1.92-2.59-1.89a2.44,2.44,0,0,0-1.8,1.63c-.05.59.94,1.69,1.6,1.8S173.45,90.48,174.79,89.69Zm3.1,10.91c-1.33-.92-2-1.83-2.7-1.77s-1.31,1-2,1.58c.6.63,1.13,1.66,1.82,1.78S176.49,101.44,177.89,100.6ZM73.47,86.83c-1,1.24-1.93,1.94-1.9,2.6a2.44,2.44,0,0,0,1.65,1.78A2.44,2.44,0,0,0,75,89.6C75.14,89,74.26,88.16,73.47,86.83Zm100.27,26.68.93,0c.46-.69,1.35-1.44,1.27-2.06s-1.06-1.26-1.65-1.89c-.58.56-1.55,1.08-1.61,1.69S173.35,112.77,173.74,113.51Zm-102.58.73c.85-1.41,1.69-2.18,1.59-2.81s-1.09-1.22-1.69-1.82c-.58.62-1.56,1.2-1.64,1.89S70.23,112.86,71.16,114.24Zm-.84-11.06c.88-1.31,1.78-2.07,1.7-2.69a2.48,2.48,0,0,0-1.75-1.65c-.59,0-1.61,1-1.68,1.68S69.42,101.88,70.32,103.18Z" transform="translate(-23.5 -20.47)"/><path class="cls-1" d="M162.09,108.34a39.18,39.18,0,0,1-39.63,39.18c-21.28,0-38.66-17.78-38.63-39.42a39.13,39.13,0,0,1,78.26.24Zm-63-6.11c0,3.33.11,6.66,0,10a20.48,20.48,0,0,0,5.19,14.29C109,132.17,115,136.08,121.69,139a3.57,3.57,0,0,0,2.9-.16c4.91-3.12,10-6,14.47-9.72a20.27,20.27,0,0,0,7.78-15.9c0-7.8,0-15.6-.06-23.39A4.36,4.36,0,0,0,145.47,87c-11.83-10.8-33-10.82-45,0a4.77,4.77,0,0,0-1.33,3.09C99,94.1,99.08,98.17,99.08,102.23Z" transform="translate(-23.5 -20.47)"/><path class="cls-1" d="M95.31,71.2c-1.51-2-2.55-3.42-4-5.36,1.49-.3,2.71-.92,3.59-.6a3.53,3.53,0,0,1,2,2.43C97,68.6,96.05,69.64,95.31,71.2Z" transform="translate(-23.5 -20.47)"/><path class="cls-1" d="M88.15,61.22c1.74-1.47,3.11-1.35,4.16.21s.36,2.81-1.24,3.9Z" transform="translate(-23.5 -20.47)"/><path class="cls-1" d="M147.67,66.66a10.93,10.93,0,0,1,5.18-7.32,2.84,2.84,0,0,1,4.29,3A10.56,10.56,0,0,1,152,69.89C149.91,71.13,147.64,69.6,147.67,66.66Z" transform="translate(-23.5 -20.47)"/><path class="cls-1" d="M101.83,55.74c1-1.21,1.63-2.69,2.77-3.33,1.6-.89,3.12.18,3.78,1.67a23.38,23.38,0,0,1,2.06,6.63c.12,1.06-1,2.68-2.06,3.35-1.44.94-2.92-.08-3.63-1.45C103.69,60.57,102.92,58.36,101.83,55.74Z" transform="translate(-23.5 -20.47)"/><path class="cls-1" d="M130.84,160.78l-1-5.47c1.35.21,2.65,0,3.26.61a3.47,3.47,0,0,1,.94,2.94c-.33,1-1.6,1.61-2.47,2.4Z" transform="translate(-23.5 -20.47)"/><path class="cls-1" d="M126.58,103.73c.54-1.86,1.3-3.28,1.3-4.71,0-3.19-.32-6.4-.52-9.6a11.18,11.18,0,0,1-.14-3.49c.12-.45,1.6-.67,2.48-.72,1.86-.11,3.75.18,5.58-.07,5.05-.7,7.46,4.18,5.75,8.37A2.42,2.42,0,0,0,141.1,95c1.32,4.24,0,9.41-5.85,8.82C132.63,103.51,130,103.73,126.58,103.73ZM133,97.06l1.74,2.23c.47-.47,1.3-.89,1.36-1.41C136.28,95.89,134.85,96.32,133,97.06Zm1.8-8.09c-.67.88-1.24,1.32-1.3,1.83,0,.3.73,1,1.09,1,.54,0,1-.6,1.55-.94Z" transform="translate(-23.5 -20.47)"/><path class="cls-1" d="M135.39,107.53h7.85a30.27,30.27,0,0,0-1.53,5.43c-.25,2.57.1,5.2-.15,7.77a7,7,0,0,1-1.59,3.74,5.19,5.19,0,0,1-3.12,1.35,30.17,30.17,0,0,1-4.85.05,4.84,4.84,0,0,1-4.51-4.45c0-1.29.11-2.6,0-3.88-.25-2.16-.72-4.29-1-6.45a31.32,31.32,0,0,1,0-3.51h7.76a25.14,25.14,0,0,0-1.26,4.67,70.56,70.56,0,0,0,0,8.48c0,.3,1.3.79,2,.75s1.47-.79,1.43-1.14c-.34-3,1.15-6.16-.86-9.11C134.92,110.41,135.39,108.9,135.39,107.53Z" transform="translate(-23.5 -20.47)"/><path class="cls-1" d="M105.49,110.8c-1.18-4.93-.81-5.82,3.11-8,3.74-2.1,7.48-4.21,11.23-6.3.75-.42,1.53-.77,2.63-1.31,0,2,.06,3.72,0,5.39a1.87,1.87,0,0,1-.78,1.34C116.3,104.89,110.93,107.82,105.49,110.8Z" transform="translate(-23.5 -20.47)"/><path class="cls-1" d="M122.16,84.94c.73,2.32.25,3.65-1.84,4.71-5,2.52-9.81,5.3-14.71,8-1.63-4.37-.76-6.95,3-9A27.68,27.68,0,0,1,122.16,84.94Z" transform="translate(-23.5 -20.47)"/><path class="cls-1" d="M122.24,108.26c.13.6.17.76.2.92.67,3.77-.41,6.36-4.3,7.88-3.29,1.3-6.28,3.34-9.68,5.2l-2.74-4.75Z" transform="translate(-23.5 -20.47)"/><path class="cls-1" d="M122.31,121.29v11.6l-9.67-6.17Z" transform="translate(-23.5 -20.47)"/></svg>