<?xml version="1.0" encoding="utf-8"?>
<!-- Generator: Adobe Illustrator 24.0.3, SVG Export Plug-In . SVG Version: 6.00 Build 0)  -->
<svg version="1.1" id="Layer_1" xmlns="http://www.w3.org/2000/svg" xmlns:xlink="http://www.w3.org/1999/xlink" x="0px" y="0px"
	 viewBox="0 0 250 239.4" style="enable-background:new 0 0 250 239.4;" xml:space="preserve">
<style type="text/css">
	.st0{fill:#FFFFFF;}
</style>
<g transform="matrix(1.25 0 0 -1.25 -258.03 614.97)">
	<path class="st0" d="M313,491.4c0-0.1-0.6-0.3-0.6-0.4c-0.2-0.6,0.1-1,0.2-1.4c-0.2,0-0.3-0.4-0.4-0.4c-0.7-0.2-1.6,0.2-2.4,0
		c-0.4-0.1-1-0.9-1.4-1c-0.9-0.2-1.4,0.4-2.2-0.2c-0.4-0.3-1.2-2.8-1.4-3.4c-0.2,0.1-0.4-0.1-0.6,0c-0.2,0.1-0.5,0.7-0.8,0.8
		c-1.8,0.7-1.8-0.8-2.6-1.4c-0.3-0.2-0.8-0.2-1.2-0.4c0,0-0.1,0.6-0.2,0.8c0.2,0.2,0.9,0.5,1,0.8c0.1,0.2-0.1,0.6,0,0.8
		c-0.2,0.1-0.4,0.1-0.4,0.4c-0.4,0-0.8-0.1-1.2,0c-0.2-0.3-0.7-0.7-0.8-1c0-0.1,0.1-0.5,0-0.6c-0.2-0.2-0.9-0.4-1-0.6
		c-0.3-0.9,0.2-1.6,0.4-2.2H297c-0.3-0.1-0.9-1.1-0.8-1.6c0-0.2,0.5-0.5,0.6-0.6c0.1-0.1,0.1-0.7,0.2-0.8c0.2-0.1,0.5,0,0.6-0.2
		c-0.4-0.8-0.3-1.1-0.6-2c-0.1,0.1-0.5,0-0.6,0c-0.5,1.1-0.6,0.7-0.4,2.4c-0.2,0.1-0.6,0.6-0.8,0.6c-0.6,0.2-1.4-0.2-2,0
		c-0.2,0.1-0.3,0.7-0.6,0.8c-0.2,0.1-1-0.2-0.8-0.2c-0.2-0.4-0.5-0.8-0.8-1.4c0-0.1-0.4-0.1-0.4-0.2c-0.1-0.3,0-1-0.2-1.2
		c-0.4-0.3-1-0.1-1.4-0.4c-0.3-0.2-0.8-3.1-0.4-3.4c0.6-0.4,1,0,1.4,0.2c0.3,0.2,0.1,0.4,0.2,0.8c0.1,0,0.6-0.2,0.6-0.2
		c-0.1-0.6-0.2-0.7-0.2-1.4c-0.2,0-0.3-0.4-0.4-0.4c-0.6-0.2-1.6,0.2-2.2,0l-0.2-0.4c-0.3-0.2-0.6,0-1-0.2c0.2,1.1,0.3,1.7,0.6,2.6
		c-0.4,0.2-0.1,0-0.2,0.4c-1,0.1-1.8,0.4-2.4-0.4c-0.8-1-0.5-2,0-3c-0.4-0.5-1.1-1-1.2-1.8c0-0.2,0.1-0.8,0-1c0-0.1-0.9-0.2-1-0.2
		c-0.1-0.4-0.1-0.9-0.2-1.4c0,0,0.7-0.1,0.8-0.2c0.2-0.2,0.2-0.8,0.4-1c-0.4,0-2.7-0.2-3.2-0.6c-0.5-0.4,0.3-2.4,0-3.2
		c-0.1-0.4-0.8-0.8-1-1.2c-0.9-1.4-1.6-2.5-2.6-3.8c-0.2-0.2-0.7-0.4-0.8-0.8c-0.6-2.4,0.6-1.6,1.2-1.8c0.1-0.1,0.8-0.6,1-0.8
		c-0.4-0.8-1.3-2-0.6-3.2c0.1-0.2,0.7-0.3,0.8-0.6c0.1-0.3-0.3-0.1-0.2-0.6c0.2-1.2,1.5-1.2,2.6-1.2c-0.1,0-0.8-0.6-0.8-0.6
		c-1.9-0.6-1.6,0.3-2.4-1.6c-0.9,1.2-1.6,1.5-3.4,1.8c-0.2-0.3-0.4-0.4-0.6-0.6c0.4-0.9,0.4-1.3,0.8-2.2c-0.3-0.2-1-0.5-1.2-0.8
		c-0.2-0.3-0.2-0.8-0.4-1c-0.2-0.2-0.6,0-0.8-0.2c-0.3-0.2-0.6-0.7-0.8-1c0.1-0.1,0-0.6,0-0.8c1-0.3,1.1-0.4,2.4-0.2
		c-0.1-0.2,0.1-0.4,0-0.6l-0.4-0.2c-0.4-0.7-0.2-1-0.4-2c0.1-0.1,0.7-0.3,0.8-0.4c0.6-0.8,0.9-1.4,1.4-2.2c-0.4-0.3-1.5-0.7-1.6-1.2
		c-0.1-0.3,0.1-0.6,0-1c0.5-0.1,1.4-0.3,2-0.6c0.1-0.1,0.4-0.5,0.6-0.6c0.3-0.1,0.6,0.1,1,0c-0.1-0.5-0.2-0.9-0.4-1.6
		c-0.5,0-0.6,0.4-1.2,0.2c-0.1,0-0.4-0.5-0.6-0.6c0.8-1.4-0.1-1,2-1.2c0.2-0.5,0.4-1.1,0.6-1.6h0.2c0.2-0.8-0.3-1.1-0.2-2
		c0.1-0.7,0.7-2.2,0.8-2.8c0.1-0.5-0.2-1,0-1.4c0-0.1,0.3-0.2,0.4-0.4c1.7,0.6,0.5-0.3,1.6,1c0.2-0.1,0.4,0.1,0.6,0
		c0.1,0,0.5-0.6,0.6-0.6c0.9-0.2,1,0.4,1.8,0c0.9-0.4-0.1-1-0.2-1.4c-0.1-0.2,0.1-0.6,0-0.8c1.5-1.1,2-1.7,4.2-1.6
		c0.1,0.3,0.2,0.7,0.4,1c0.2,0.2,0.6,0.2,0.8,0.4V417c0-0.2,1.2-1.6,1.4-2c0.5,0,1,0,1.6,0c0.1,0.1,0.3,0.8,0.4,0.8
		c1.8,0.4,2.3-1.5,3.2-1.8c0.6-0.1,0.9,0.1,1.4,0.2c0.2-0.2,0.3-0.9,0.6-1c0.2-0.1,0.6,0.1,0.8,0c0,0.2,0.4,0.3,0.4,0.4
		c0.1,0.3-0.1,0.7,0,1c-0.2,0-1.1,0.1-1.4,0.2c-0.3,0.2-0.5,1.1-0.8,1.2h-0.4c-0.1,0.2,0.1,0.6,0,0.8c0.1,0.2,0.5,0.6,0.6,0.8
		c0.3-0.2,0.8-0.3,1-0.6c0.1-0.2-0.1-0.6,0-0.8c0.1-0.3,0.6-0.5,0.8-0.8c0.4,0.1,0.8-0.1,1.2,0c0.7,0.2,0.9,1,1.8,1
		c1.1,0,2.1-1,3.6-0.6c1,0.3,0.8,1.6,1.4,2c0.7,0.5,1.7,0.1,2.6,0.4c0.2,0.1,0.6,0.5,0.8,0.6c0,0.2-0.1,0.6,0,0.8
		c0.1,0.2,0.5,0.1,0.6,0.4c0.9-0.3,2.1-1,3.2-0.4c0.3,0.1,0.4,0.8,0.6,1c0.2,0.2,0.6,0.1,0.8,0.2c0.2,0.1,0.6,0.7,0.8,0.8
		c0.5,0.2,0.9,0.2,1.4,0.4c0,0,0.3,0.9,0.2,1.2c-0.1,0.3-0.7,0.6-0.8,0.8c-0.2,0.6,0.3,0.5,0.2,1c0.3,0.2,0.4,0.5,0.6,0.8
		c0.8-0.1,1.7-0.3,2.4,0c0.4,0.2,0.3,0.7,0.6,1c0.4,0.5,1.3,0.9,1.8,1.2c-0.1,0.6-0.3,1.3-0.2,1.8c0.1,0.4,0.8,0.9,1,1.2
		c0.3,0.4,0.2,0.7,0.4,1.2c-0.1,0.1-0.6,0.3-0.6,0.4c-0.1,0.2,0.1,0.4,0,0.6c1.6,1.1,1.9,1.7,0,2.8c1.2,0.6,2.2,1.2,3.4,1.8
		c-0.1,0.3,0,0.7,0,1c-0.2,0.1-0.6,0.5-0.8,0.6c-0.8,0.2-1.3,0-1.8,0.4c-0.2,0.2-0.1,0.7-0.2,1c-0.4-0.2-0.3,0.6-0.4,0.8
		c0,0,1.1-0.1,0.8-0.2c1.3,0.1,3.5,0.3,2.4,2c-0.1,0.2-0.8,0.2-0.8,0.4c-0.1,0.4,0.4,1,0.2,1.6c-0.1,0.5-0.9,0.6-1,0.8
		c-0.4,0.6-0.6,0.8,0.2,1.2c-0.1,1.4-0.2,1.3,0.6,2c0,0,0.5,0,0.6,0c0,0.2,0,1.1,0.2,1.4l1.2,0.6c-0.3,0.8-0.6,1.6-0.4,2.2
		c0.1,0.2,0.6,0.6,0.6,0.8c0.1,0.5-0.3,0.3-0.2,0.6c-0.2-0.1-0.8-0.2-0.8-0.2c-0.5-1.7-0.3-2.3-1.4-0.8c-0.5-0.1-0.5-0.3-0.8-0.4
		c0,0,0,1.3,0,1.6c1.6,0.4,1,0.1,1.8,1.2c0.2-0.1,0.4,0.1,0.6,0c0.2-0.1,0.2-0.7,0.4-0.8c0.9-0.7,2.2-0.2,3,0
		c-0.1,0.4,0.1,0.8,0,1.2c-0.1,0.2-0.7,0.7-0.8,1c-0.1,0.2-0.1,1.1,0.2,1v0.4c0,0.1-0.6,0.5-0.6,0.6c0,0.1,0,0.5,0,0.6
		c1.5,0.6,1.7,0.8,2.4,2.2l0.4,0.4c0.1,0.4-0.4,0.8-0.2,1.4c0.1,0.3,0.7,0.8,0.8,1.2c0.1,0.4-0.3,0.9-0.2,1.6c0.1,0.4,0.9,1.1,1,1.4
		c0.1,0.4-0.1,1,0,1.4c-1.3,0.8-1.2,0.4-1.4,2.4c0.3,0.2,0.1,0.2,0.2,0.6h0.4c0-0.4,0-1,0-1.6c0,0,1.1,0,0.8,0.2
		c0.1,0.2,0.4,1,0.6,1.2c0,0,0,0.6,0,0.6c-0.1,0.3-0.6,0.7-0.8,1c0.2,0.3,0.4,0.6,0.6,0.8c0.1,0.2,0.6,0.8,0.6,1
		c0.2,0.9-0.4,1.7-0.4,2.2c0,0.8,0.5,1.2,0.4,2.2l-0.4,0.6c-0.5,2.2-0.1,1.9-2.2,2.4c-0.1-0.4-0.3-1.1-0.4-1.6
		c-0.4-0.1-0.2,0.2-0.4-0.2c-0.7,0-1.6,0.2-2,0.2c0.1,1.5,0,2.1-0.4,3.4c-0.6,0.1-1.6,0.7-2.4,0.4c-0.2,0-0.4-0.5-0.6-0.6
		c0-0.5,0.1-0.9,0-1.4h-0.4c-0.2,0.4,0,0.6-0.2,1c-0.3,0.5-1.3,0.9-1.4,1.6c-0.2,1.1,0.5,1.2,0.4,2.2c0,0.3-1.8,2.5-2,2.6
		c-1.1,0.2-1.3-0.5-1.8-0.8c-0.6-0.3-1.4-0.5-2-0.8c0.3-1.3,1.1-3.7-1.4-3.2c-0.9,0.2-0.6,0.8-1,1.6c-0.1,0.1-0.6,0.3-0.6,0.4
		c-0.2,0.9,0.5,1.7,0,2.6C314.3,491.3,313.6,491.2,313,491.4L313,491.4z M253.5,466.1c-0.1-0.2-0.5-0.1-0.6-0.2
		c-0.3-0.3,0-1-0.2-1.4c-0.2-0.3-1.2-0.9-2-0.6c0,0-0.4,1.1-1,1.2c-0.6,0.1-1.3-0.2-1.6-0.2l-0.2-1.6l-1-1.2l0.6-0.2
		c0.4-0.6,0.4-0.8,0.8-1.6c-0.2,0.1-0.6-0.1-0.8,0c-0.7,0.2-1.4,2.3-2.2,2.6c-1,0.4-2.6,0.4-3.8,0.6c-0.2-0.3-0.5-0.4-0.8-0.6
		c0,0,0-0.6,0-0.6c0.2-0.1,0.3-0.5,0-0.4c0,0-0.2,0.3-0.2,0.4c-0.6,0-1.2,0-1.8,0c-0.2-1.3-0.8-1.9-1.4-2.8c-0.2,0.2-0.6,0-0.8,0.2
		c-0.1,0.1-0.4,0.7-0.4,0.8c1.3,0.4-2.3-0.1-0.8-0.2c-0.3-0.1-0.6,0-0.8-0.2l-1.2-1.4c-0.3-0.6-0.2-1.6-0.8-2
		c-0.3-0.2-1.2-0.2-1.4-0.2c-1-2.6-0.8-0.9-2.4-1.6c-0.3-0.1-0.4-0.8-0.6-1c-0.2-0.2-0.6-0.1-0.8-0.2l-0.2-0.4
		c-0.9-0.6-1.7-0.4-2.6-0.4c-0.1-0.3-0.2-0.9-0.4-1.2c-0.3-0.5-1.1-0.4-1.6-0.8c-0.7-0.4-2.3-3-2.8-3.2c-0.1,0-0.8,0.2-1.2,0.2
		c-0.7,0-2-0.4-2.6-0.6c0-1,0.1-1.8,0.2-2.6c-0.5,0.1,0.1-0.2-0.4-0.2l-0.4,0.4c-0.7,0.2-1.4-0.5-1.6-0.8c-0.3-0.7,0-1.3,0-2
		c0.3,0,0.9,0.1,1.2,0c-0.2-2.3,0.1-2.3-2-2.2c-0.1-0.1-0.5-0.5-0.6-0.6c0.2-0.8,0.2-1.1,0.4-2c-0.1,0-0.9-0.1-1.2-0.2
		c0,0,0.1,1-2-0.4c0.3-2.2-0.7-3-0.4-5.4c-0.6-0.3-1.3-0.8-1.8-1.2c0.1-0.3-0.1-0.6,0-1c0.1-0.5,0.7-1.2,0.8-1.8
		c0.1-0.7,0-1.3-0.2-1.8c0,0-0.4-0.2-0.4-0.2c-0.2-1.2,0.3-2.7,0.4-3.8c0.2-0.1,0.5,0,0.6-0.2c0.1-0.2-0.1-0.6,0-0.8
		c-0.1-0.2-0.7-0.4-0.8-0.6c-0.6-1,0-2-0.2-3.2c0,0-0.4-0.2-0.4-0.2v-0.4c-0.1-0.3-0.2-1,0-1.6c0-0.1,0.5-0.3,0.6-0.4v-0.4
		c2.1-0.1,2.1-0.2,3.2,1.2c0.2-0.1,0.6-0.2,0.6-0.2c-0.1-0.3-0.4-0.7-0.4-0.8c-0.1-0.3,0.2-1.2,0.2-1.2c0.1-0.1,0.6-0.3,0.6-0.4
		c0.1-0.5,0-1.1,0-1.6c-1.8,0.8-3,0.7-2.2-1.6c0.1-0.3,0-0.5,0.2-0.6c0.4-0.2,0.9,0,1.4-0.2c0.1-0.1,0.5-0.8,0.6-0.8
		c1.3-0.2,1.8,1.1,2.2,1.8c0.2-0.1,0.5-0.4,0.8-0.4c-0.7-1.4-0.4-1.2,0-2.4c0,0,0-0.6,0-0.6c-0.1,0.3-0.2-0.5-0.2-0.6
		c0.3-1.2,1.9-1.1,3-1c-0.1-0.1,0-0.5,0-0.6c-0.2-0.5-1.5-1.1-2-1.4c0.1-0.3-0.1-0.7,0-1c0.1-0.2,1.2-1.1,1.4-1.2
		c0.8-0.2,2.3,0.3,2.8,0.6c0.2,0.1,0.5,0.8,0.8,0.8c0.6,0.1,0.9-0.2,1.4-0.4c0,0,0-0.6,0-0.6c-2.5-0.3-3.1-0.9-1.8-2.8
		c1.1,0.3,1.3,0.1,2.4,0.4c0.1-0.6,0.3-1.9,0.8-2.2c0.4-0.2,1,0.1,1.4,0c2.1-0.3,2.2-1.2,3.6,0.8c1-0.1,1.7-0.3,2.4,0l0.4,0.4
		c0.7,0.1,1.4-0.4,1.8-0.4c0.6,0,0.8,0.2,1.2,0.2c0.1,0.5,0.2,0.9,0.4,1.6c-0.3,0.3-0.6,0.4-1,0.6v0.4c0.7,0.3,1.4,0.8,2,1
		c0.7,0.2,1.8,0.3,2.4,0l0.4-0.4c1-0.2,1.5,0.5,2.2,0.6c0.4,0.1,1.2-0.2,1.6,0c0.6,0.3,0.6,1.5,1,2c0.4,0.5,1.4,0.8,2,1.2
		c-0.2,0.5,0.6,0,0.6,0c0.3-1.8,0-1.5,1.8-1.8c0.3,0.6,0.8,1.8,1.6,1.8c0.3,0,0.1-0.3,0.6-0.2c0.1-0.3-0.1-0.7,0-1
		c0-0.1,0.5-0.4,0.6-0.6c0.2,0.1,0.6-0.1,0.8,0c0.6,0.2,1,1.6,1.2,2.2c2.2,0.1,1.8-0.1,2.6,1.4c0.9-0.1,1.4-0.1,2.2,0
		c0,0.2,0.4,0.3,0.4,0.4c0.1,0.4-0.1,1,0,1.4c0.1,0.4,1,0.7,1.2,1c0.3,0.3,0.3,0.9,0.6,1.2c0.6,0.5,1.5,0.6,1.8,1.4
		c0.1,0.4-0.1,0.9,0,1.4c0,0.2,0.6,1,0.6,1.2c0.1,1.5-0.7,1.7-1.6,2.2c-0.3-0.3-0.5-0.7-0.8-1c0.5-0.1-0.6-0.4-0.6-0.4
		c0.2,1.1-0.2,1,1,1.8c0.5,0.3,0.8,0.3,1.2,0.6c0.1,0.1,0.2,0.5,0.4,0.6c0.7,0.3,1.5,0,2.2,0.4c0.3,0.2,0.1,0.8,0.4,1
		c-0.3,0.6-0.1,0.7-0.6,1c-0.3,0.2-0.6,0.2-1,0.4c0.2,0.1,0.4,0.7,0.6,0.8c0.6,0.2,1.2-0.1,1.6,0.2c0.4,0.2,0.1,0.6,0.4,1
		c0.2,0.2,0.8,0.4,1,0.6c0.2,0.3,0.9,2.4,0.8,3c-0.1,0.3-0.7,0.6-0.8,0.8c-0.2,0.5,0,0.8-0.2,1.4c0.3,0,0.3,0.4,0.4,0.4
		c0.4,0.1,0.6-0.3,0.8-0.4c1.2-0.3,1.5,0.4,2,0.8c-0.1,0.9-0.2,1.9-0.2,2.6c-0.9,0.5-1.3,0.2-1.4,1.6c-0.1,1.4,0.7,1.3,0.8,1.8
		c0.1,0.4-0.2,1.1-0.2,1.2c-0.1,1.8,0.5,1.9,0,3.6c0.3,0.1,0.7,0,1,0c0.6,1.3,0.5,0.8,0.2,2.2c-0.3,0.1-0.6,0-0.8,0.2
		c-0.4,0.4-0.8,1.1-1.2,1.6c0.9,0.7,1.5,1.4,2.4,2c-0.1,0.3,0.1,0.7,0,1c0,0.1-0.6,0.6-0.6,0.8c-0.2,0.9-0.1,1.4-0.2,2.2
		c0.2,0,1.1-0.1,1.6-0.2c0,0,0.2,0.9,0.2,1.2c0,0.1-1,2.5-1,2.6c-0.2,0.2-0.8,0.3-1,0.4c0.3,0.9,1,2.6-0.2,3c-0.3,0.1-0.7-0.1-1,0
		c-0.1-0.4-0.2-0.7-0.4-1c-1-1.7-0.2-0.1-1-0.4c0,0.4,0.1,0.9,0,1.2c0.1,0,0.4,0.2,0.4,0.2c0.1,0.3,0.2,0.3,0.4,0.4
		c-0.2,0.4-0.3,0.9-0.4,1.2c-0.4-0.2-1.6-0.7-2-0.6c0,0-0.5,0.6-0.6,0.6c-0.2,0.1-0.6-0.1-0.8,0c-0.2-0.1-0.6-0.9-0.8-1
		c-0.2-0.1-0.6,0.1-0.8,0c0.7,0-0.4,2.6-0.4,2.6c1,0.4,1.1,0.5,1.8,1c-0.1,0.3,0,0.8,0,1.2c-0.9,0.2-1,0.3-2.2,0.2
		c-0.3,0.5-0.2,0.5-0.6,0.8c-0.6-0.4-0.7-0.6-1.6-1c-0.2-2-0.1-2,1.6-2c-0.4-0.8-0.3-1.1-0.6-2.2c-0.5,0.7-1.2,1.4-2,1.8h-0.2
		c-0.3,0.7-0.1,1.7-0.2,2.4c0.4,0.1,0.4,0,0.6,0.2c0.3,0.3,1,0.5,1.2,0.8c0.1,0.1,0.2,0.8,0,0.6c-0.1,0-0.3,0.7-0.4,0.8
		c-0.9,0.5-2.4-0.2-3.2,0c-0.6,0.1-0.9,1.4-1.4,1.6L253.5,466.1L253.5,466.1z M377,463.5l-0.4-0.2c-0.2-0.3-0.1-0.5-0.2-1
		c-0.9,0.2-1.3,0.2-2.2,0.4c-1.2-2.6-0.8-1.9-3.8-2l-1-0.4c-0.2,0-0.4,0.2-0.2,0.2c-0.3,0.1-0.7-0.1-1,0c-0.3,0.1-0.3,1.4-1.4,1
		c0,0-0.5-0.8,0-0.6c0,0,0.2-1,0.2-1.2c-0.9-0.6-0.8-0.4-1.4-1.4c-0.6,0.2-0.8,0.1-1.2,0.4c-0.8,0.5-0.4,0.9-0.2,0.8
		c0.1,0.4,0.6,0.4,0.4,1.2c0,0.2-0.7,0.4-0.8,0.6c-0.2,0.2-0.1,0.5-0.2,0.8c-0.1,0-0.7,0.1-1,0.2c-0.1-1-0.2-2,0-3.2
		c-0.5,0-1.7,0-2.4-0.2c-0.3-0.1-0.9-1-1.2-1.2c-0.2,0.1-0.7,0-1,0c-0.1,0.3-0.1,0.7-0.2,1.2c-0.6,0.1-1.4,0.7-2.4,0.4
		c-0.1,0-0.5-0.6-0.6-0.6h-0.4c-1.4-1.4,0.8-1.7,1.6-2.2c0.2-0.1,0.5-0.6,0.8-0.8c-0.3-0.2-0.6-0.4-0.8-0.6
		c-0.9,0.6-1.8,1.3-3.4,0.8c-0.3-0.1-0.7-0.7-1-0.8c-0.4-0.1-0.8,0.1-1.2,0c-0.2,0.8-0.6,2.4-1.6,2.4c-0.3,0-0.6-0.3-1-0.4
		c0-0.2-0.4-0.3-0.4-0.4c-0.2-0.5-0.2-1.4-0.2-1.8c-1.5-0.4-2.5-0.8-4.2-1c-0.3-0.8-0.5-1.3-0.8-2h-0.4v0.4c-0.3,1-1.3,0.5-2,0.4
		c-0.3-1.5-0.6-1.8-1.2-3c-1.7,0.6-1.3,0.5-2.6,0c0-0.4,0.1-0.8,0-1.2l0.6-0.2c0,0,0-0.6,0-0.6c-1,0.2-1.6,0-2.4,0
		c-0.1-0.4-0.6-0.4-0.4-1.2c0,0,0.6-0.8,0.6-0.8c-0.6-0.2-0.8-1.6-1-2.2c-1.6-0.4-2.4-0.4-3.6-1.2c0.1-0.4-0.2-1,0-1.4
		c0.1-0.4,1.1-0.7,1.4-1c0.3-0.4,0.4-1.3,0.8-1.6c0.5-0.3,0.9,0.1,1.2,0c0,0,0.2-0.4,0.4-0.4c0,0-0.4-1.2-0.2-1.2
		c-1.3,0.1-1.7,0.1-3-0.2c0.1,0.9,0.3,2.3-0.6,2.6c-0.2,0.1-0.6-0.1-0.8,0c-0.1-0.2-0.4-0.3-0.4-0.4c-0.3-0.9,0.4-1.3,0.2-2.2
		c-0.1-0.5-2.8-2.7-3.4-3.4c0.2-0.2,0.1-0.4,0.2-0.8c0.5-0.1,1.3-0.5,1.8-0.6c-2.3-0.6-3.4-1.4-2.4-3.6c-0.7-0.5-2.4-2.3-2.2-3.6
		c0-0.3,0.7-0.6,0.8-0.8c0.1-0.2-0.1-0.6,0-0.8c-0.4-0.2-2.7-1.9-2.8-2.2c-0.1-0.4,0.1-0.8,0-1.2c0.1,0,0.6-0.1,0.8-0.2
		c0.2-0.1,0.1-0.5,0.2-0.6c-0.3-0.5-1.2-1.2-1.4-1.8c-0.2-0.8,0.4-2.3-0.4-2.6c-0.4-0.1,0.6-1.2,0.6-1.2V413
		c0.1-0.1,0.5-0.7,0.6-0.8c0.2-0.3,0.3-0.4,0.6-0.6c-0.4-0.6-1.4-1.7-1-3c0-0.1,0.5-0.4,0.6-0.6c0.6,0.1,1,0.2,1.4,0.2v-2
		c0,0.4,0-2.1,0.2-2.4c0.1-0.2,1-0.2,1.2-0.4c0.1-0.1,0.2-0.7,0.4-0.8c0.5-0.3,1.4-0.5,1.8-0.6c0-0.5-0.2-1.5,0-2
		c0.2-0.6,1.2-0.5,1.8-0.8c0.2,0.3,0.6,0.5,0.8,0.8c0.2,0.2,0.3,0.6,0.4,0.8c0.2-0.5,0.6-1.9,1-2.2c0.7-0.5,1.4-0.3,2.4-0.2
		c-0.1-0.1,0-0.4,0-0.6c-0.1-0.2-0.8-0.8-1-1c0.2-0.3,0.3-0.7,0.4-1c0.6,0,1.2,0.1,2,0c0.3,0,0.8-0.6,1.6-0.4c0.2,0,0.6,0.7,0.8,0.8
		c0.2,0.1,0.6-0.1,0.8,0c1.1-1.6,0.4-1.7,2.8-2.2c0.7,1,1.3,3,3.2,2.6c0.1,0,0.6-0.8,0.8-0.8c0.7-0.2,1.2,0.4,2,0.2
		c0.2,0,0.4-0.7,0.6-0.8c0.3-0.2,0.6,0,1-0.2c0.2-0.1,0.2-0.7,0.4-0.8c0.3-0.2,2.8-1.2,3.6-1c0.3,0.1,0.6,0.9,1,1
		c1.1,0.3,1.6-0.5,2.6-0.2c0.7,0.2,1.2,1.6,1.4,2.2c2.7-0.4,1.8-0.1,3.4,1c0.3,0.2,0.7,0.2,1,0.4c0.2,0.1,0.4,0.7,0.6,0.8
		c0.8,0.3,1.8-0.2,2.6,0c0.4,0.1,0.7,0.6,1,0.8c-0.1,0.3-0.2,0.9-0.2,1c-0.5,0.2-1,0.6-1.4,0.8c0.7-0.1,1.6-0.3,2-0.2
		c0.7,0.1,2.5,1.5,2.6,2.2c0.1,0.6-0.9,1.4,0,1.8c0.5,0.2,1.3-0.1,1.8,0c0.5,0.1,1.4,0.6,1.8,0.8c-0.1,0.3,0,0.7,0,1
		c-1.4,0.6-1.6,0.7-3-0.2l-0.2-0.4c-0.7-0.1-0.6,0.4-1,0.4c0,0.3,0.2,0.9,0.2,1c1.6-0.1,2.3-0.1,3.2,0.8c1.5,1.7,0.7,2.2-1.2,2.8
		c0.1,0.2-0.1,0.4,0,0.6c0.1,0.2,0.7,0.6,0.8,0.8c0.1,0.2-0.1,0.6,0,0.8h0.4c0,0,0-0.7,0-0.8c0.3-0.1,0.5-0.1,0.6-0.4
		c1.1,0.4,2.9,1.1,3,2.2c0.2,1.7-1.9,1.7-3,1.6c0.5,1.1,0.6,1.8,0.4,3.2c0.5,0.2,0.7,0.1,1.2,0.2c0,0.2,0.4,0.3,0.4,0.4
		c0.4,1.1,0,1,0.6,1.8c0.2,0.3,0.7,0.5,1,0.8c0-0.2-0.4-0.7-0.4-0.8c-0.1-0.7,0.4-0.8,0.2-1.4c-0.1-0.2-0.8-0.6-1-0.8
		c0.1-0.3,0-0.7,0-1c1-0.2,0.9-0.9,2,0.2c0.4,0.4,0.2,0.7,0.4,1.2c0.2-0.1,0.6,0.1,0.8,0c0.2-0.1,0.3-0.8,0.4-1
		c0.8,0.4,1.8,0.5,2.2,1.2c0.1,0.2,0.6,2.8,0.6,3c0,0.3-0.5,0.6-0.4,1.4c0,0,0.9,1.6,1,1.8c-0.7,0.2-0.9,0.4-1.6,0.6
		c0.1,0.1-0.1,0.5,0,0.6c0.3,0.2,0.7,0.1,1,0.2c0,0.2-0.1,1.2,0,1.6c0,0.2,0.6,0.5,0.8,0.6c-0.5,1-0.6,1.6-1,2.6
		c0.4,0.2,0.8,0.1,1.2,0.4c0.2,0.1,0.4,0.7,0.6,0.8c0.6,0.3,1.2,0,1.8,0.2c0.4,0.1,0.6,0.6,1.2,0.6c1.2,0,1.5-1.3,1.8-2.2
		c0.2,0.1,0.7,0.4,0.8,0.4c-0.1,1.1,0.1,1.5,0.2,2.4c0,0.2-0.2,0.5-0.2,0.4v0.6c0.7,0.5,1.3,1.1,2,1.6c-0.1,0.4,0.1,0.8,0,1.2
		l-0.4,0.4c0,0-0.2,0.4-0.2,0.4c-0.6-0.1-1.4-0.4-2-0.2c-0.1,0-0.4,0.5-0.6,0.6c0.5,0.8,0.6,1,1.2,1.6c-0.3,1-1,4-0.8,5
		c0.1,0.8,1.4,1.4,1.6,2c0.6,1.6-0.5,5.2-1.4,5.6c-0.9,0.4-2-0.2-3,0.2c-0.3,0.1-0.2,0.7-0.4,1c-0.4,0.6-1.2,0.4-1.8,0.8
		c-0.6,0.5-1.3,2.9-2,3.2c-0.2,0.1-0.4-0.1-0.6,0c-0.4-2-0.3-1.9-2.2-2.4c-0.1,0.3-0.2,0.7-0.4,1c-0.2,0.2-0.9,0.4-1,0.6
		c-0.2,0.7,0.4,1.1,0.2,2c-0.1,0.3-0.8,0.6-1,0.8c0,0,0.2,0.4,0.2,0.4c0.5,0,1.1,0.2,1.6,0c0.4-0.1,0.7-1.1,1.2-1.2
		c2.5-0.6,2,1.2,1,2C378.3,462.8,377.7,463,377,463.5L377,463.5z M303.2,410.6c-0.2,0-0.3-0.1-0.4,0c-0.1-0.2-0.6-0.3-0.8-0.4
		c0-0.1,0-2.6,0-2.6c-0.1-0.1-0.5-0.2-0.6-0.4c-0.1-0.1-0.1-0.9-0.2-1c-0.3-0.2-0.5-0.1-1-0.2c0.2-0.1-0.5-0.2-0.6-0.2
		c-0.1,0-0.2,0.3-0.4,0.4c0.1,1,0.4,2.2-0.6,2.6c-0.4,0.2-0.5-0.3-1-0.2c-0.2,0-0.6,0.6-0.8,0.6c-1.6,0.3-2.3-0.7-3-1.2
		c-0.2,0.1-0.4-0.1-0.6,0c-0.3,0.1-0.5,0.9-0.8,1c-0.7,0.3-2.5,0.2-3.2-0.2c-1-0.5-0.4-2.6-1-3.6c-0.1-0.1-1.4-1.2-1.6-1.4
		c-0.2,0.2-1,1.1-1.2,1.2c-2.1,0.6-3.4-3-4.4,0.8c-0.1,0-0.8,0.3-1.2,0.2l-0.2-0.4c-0.7-0.4-1.2-1.3-0.2-1.8
		c0.2-0.1-0.3-0.2-0.2-0.4c-0.4-0.1-1-0.5-1.4-0.4c-0.5,0.1-0.4,1-1.6,0.8c-0.3,0-1.7-1.4-1.8-1.4c-0.4-0.1-1.4,0.1-2,0.2l-0.2-0.6
		c-1.6-0.4,0.1,0.8,0.4,1c-0.1,0.3-0.2,0.9-0.2,1c-0.8,0.1-1,0.1-1.8,0.2c-0.1-0.3-0.2-0.3-0.4-0.4c0.2-0.8,0.2-1.2,0.4-1.8
		c-0.5-0.2-1.2-0.1-1.4-0.6c-0.2-0.4-0.2-1.5-0.2-1.8c-0.4,0.1-0.4-0.3-0.8-0.2c-0.3,0.1-0.4,0.9-0.8,1c-1,0.3-2,0.1-3,0.2
		c-0.2-2-1.1-3.3-2-4.6c-0.1,0.1-0.5,0-0.6,0c-0.4,0.9-0.4,0.7-0.6,2c-0.3,0.1-0.3-0.2-0.4,0.2c-0.2-0.1-0.6,0.1-0.8,0
		c-0.1,0-0.2-0.3-0.4-0.4c0,0,0-0.9,0.2-0.6c-0.1-0.2-0.2-0.8-0.2-0.8c-0.5-0.1-1,0.2-1.4,0c-0.3-0.1-0.5-0.9-0.8-1
		c-1.5-0.6-2.7,0.2-3.8,0.6c-0.4-0.6-0.7-0.7-1-1.6c0,0.2,0.1,1.3,0,1.6c0,0.1-0.4,0.2-0.4,0.4c-0.3-0.1-0.7,0.1-1,0
		c-0.2,0-0.5-0.4-0.8-0.6c-0.2,0.1-0.4,0.7-0.6,0.8c-0.3,0.2-2.4,0.5-2.8,0.4c0,0-0.2-0.4-0.2-0.4c-1.2-1-0.6-0.8-0.4-2l0.2-0.8
		c0,0,0.9,0,0.6,0.2c0.2,0,0.6,0,0.8,0c0-0.1,0-0.8,0-0.8c-0.5,0.1-0.3-0.3-0.8-0.2c-0.2,0-0.6,0.8-0.8,0.8
		c-0.6,0.1-2.8-0.5-3.2-0.8c-0.2-0.1-0.1-0.5-0.2-0.6c-0.2-0.2-0.7-0.2-1-0.4c-0.1-0.1-0.3-0.5-0.4-0.6c-0.1,0-0.5,0.1-0.6,0
		c-0.1,0.4-0.3,0-0.4,0.2c-0.1,0.2,0,0.6,0,0.8c-0.3,0.1-0.1,0.1-0.2,0.4c-0.3,0-0.9-0.1-1.2,0c-0.4-0.6-0.9-1.4-1.6-1.8
		c-1-0.5-3.2-0.6-3.8-1.4c-0.2-0.3,0-0.5-0.2-0.8c-0.3,0.1-0.2-0.2-0.2-0.4c-0.5,0.2,0-0.6,0-0.6c0.5-0.2,0.6,0.2,1.2,0.2
		c0,0,0-0.6,0-0.6c-0.5-0.1-0.4-0.1-1-0.2c0.3-0.2-0.6-0.2-0.6-0.2l-0.2,1c-0.1,0.1-0.9-0.1-1,0c-0.2,0.3,0,1.2,0,1.6
		c-2.1,0.5-1.5,0.3-2.4-1.4c0-0.1-0.6-0.6-0.6-0.6c-0.2-0.7,0.3-1.3,0.2-1.8c0-0.2-0.5-0.4-0.6-0.6c-0.2,0.1-0.7,0-1,0
		c0,0.6,0.1,0.8,0.2,1.4c-0.2,0.1-0.4,0.1-0.4,0.4c-0.4,0-1.4-0.2-1.4-0.2c0,0-0.6-0.2-0.6-0.2c-0.3-0.3-0.1-1.1-0.4-1.4
		c-0.4-0.4-1.2-0.2-1.6-0.6c-0.1-0.1,0-0.5-0.2-0.6c-0.3-0.1-0.7,0.1-1,0c0.2,0.1-0.4,0.4-0.4,0.4c0,0.1,0.4,0.6,0.4,0.6
		c0.7,0.2,1.4,0.1,1.8,0.6c0,0.1,0.4,0.6,0.4,0.6c0.1,0.3-0.2,1.2-0.2,1.2c-1.9,0-3-0.2-4-1.6c-0.2-0.2-0.2-0.7-0.4-0.8
		c-0.6-0.3-1.3,0.1-1.8-0.2c-0.3-0.1-1-2.5-0.8-3.2c0-0.1,0.5-0.4,0.6-0.6c0.4,0,0.8,0.1,1.2,0c0,0-0.2-0.4-0.2-0.4
		c-1.5-0.3-1.6-0.6-2.2-1.8c-2,0-2.3-0.2-2.8-1.6v-0.4c-0.4-0.3-1.2-0.1-1.6-0.4c-1-0.7-0.2-3.5-0.2-5.2c0.9-0.2,2.1-0.6,2.4-1.4
		c0.1-0.2-0.1-0.4,0-0.6c-0.5-0.3-3.1-2.7-3.2-3c-0.2-0.6,0.1-1.1,0.2-1.6c0.3,0,0.7-0.3,1.2-0.2c0.4,0.1,0.5,0.6,0.8,0.8
		c0,0,0.9-0.3,0.6-0.4c0.1-0.1,0.5-0.3,0.6-0.4c0.2-0.4,0-0.8,0.2-1.4c-0.3,0-0.3-0.4-0.4-0.6c-0.2,0.1-0.5,0.6-0.6,0.6
		c-0.4,0.1-1-0.1-1.4,0c-0.2-0.6-0.9-1.8-0.8-2.6c0-0.1,0.6-0.5,0.6-0.6c0.3-0.7-0.1-0.7,0-1.4c-0.3,0.1-0.2-0.3-0.6-0.2
		c0,0-0.2,0.4-0.4,0.4c0.8,0.3-1.1,0.3-0.6,0.2l-0.2-0.8c0.8-0.5,2.2-0.8,2.8-1.6c0.3-0.4,0.2-1.1,0.6-1.4c0.6-0.5,1.4-0.2,1.6-1.2
		c0.2-1.1-0.6-1.5-0.4-2.4c0.1-0.5,1-0.8,1.2-1.2c0.1-0.3,0.4-1.4,0.4-1.6c0.1-0.9-0.2-3.1,0.2-4.2h0.2c0.6-0.3,1-1.4,1.6-1.6h0.4
		c0.1-0.1,0.1-0.5,0.2-0.6c0.4-0.2,0.9,0.1,1.4-0.2c0.4-0.2,2-2.5,1.2-3.2c1-0.8,3-1.3,2.8-3.2c0,0-0.5-0.8-0.6-1
		c0.2,0.1,0.2-0.3,0.6-0.2c0.2,0.1,0.3,0.6,0.4,0.8c0.2,0,0.7-0.1,0.8,0c0.4-0.4,2-1.6,0.6-2c-0.1,0.2-0.4,0.7-0.6,0.8
		c-0.2,0.1-0.6-0.1-0.8,0c-0.1-0.2-0.4-0.5-0.6-0.6c0,0,0-0.7,0.2-0.4c0.1-0.5,0.1-0.3,0.2-0.8c0.4,0.2,0.2-1.4,0.2-1.4
		c1.2,0.4,1.6,0.5,3,0.4c0,0.1,0.2,0.4,0.2,0.4c0.2,0.1,1-0.1,0.8-0.2c0.3-0.5,0.6-0.9,1-1.4c-0.9-0.3-2-0.3-2.2-1.2
		c0-0.1,0.1-0.5,0-0.6c-0.1-0.2-0.7-0.4-0.8-0.6c-0.1-0.3,0.1-0.7,0-1c0.4,0.2,0.7,0,1,0.2c0.4,0.2,0.7,0.9,1,1.2
		c0.7,0.5,1.3,0.8,2,1.4c0.5-0.7,1-1.6,1.6-2.2c0.2-0.2,1.1-0.5,1.2-0.8c0.2-0.6-0.2-0.7-0.2-1.2l0.4-0.6c0.3-1.5,0.1-1.1,0.6-2.2
		c0.2,0.1,0.6-0.1,0.8,0c0.5,0.2,1.2,1,1.6,1.4c1.5-1.4,2.8-2.4,5.2-1.2c-0.1-1.2-0.3-2.4,0.8-2.8c0.3-0.1,0.6,0.1,0.8-0.2
		c0.1-0.2,0.5-1.6,0.6-1.8c2.3,0.3,2.9,0.1,4.4-0.8c0.3,0.2,1.1,1.1,1.6,1c0,0-0.2-1-0.2-1.2c0.1-0.1,1.1-0.7,1.2-0.8
		c0.2-0.3-0.1-0.8,0-1.2c0.1-0.3,1-1,1-1.2c0.1-0.5-0.3-0.7-0.4-1.2c0.5,0.1,1.4,0.5,2,0.4c0.6-0.1,1-0.9,1.4-1.2
		c0.3-0.2,0.6,0,1-0.2c0.5-0.3,1.5-2.4,1.8-3.2c0.8,0.2,2.1,0.6,3,0.6c0.2,0,0.7-0.4,1.2-0.2v0.2c0.3,0.2,0.4,0.6,0.6,0.8
		c0.3,0.2,0.6,0,1,0.2c0.6-2-0.2-1.3,1.8-1.8c0,0.1,0.3,0.6,0.4,0.6c0.2,0.1,0.4-0.1,0.6,0c0.2-0.1,0.4-0.7,0.6-0.8
		c0.6-0.3,2.2-0.3,2.8-0.4c0.1-0.4-0.2-1,0-1.4c0.3-0.8,4-1.5,5.2-1.8c0.1-0.3-0.1-0.6,0-1c0,0,1.7-1.8,1.8-1.8
		c1.8-0.8,1.8,0.6,2.6,0.8c1.6,0.5,2.2-0.5,2.8-0.8c0.3-0.2,0.6,0,1-0.2c0.1,0.3,0.3,0.3,0.6,0.4c-0.2,1.1-0.1,1.7-0.2,2.4
		c0.3-0.1,0.5,0.1,0.8,0.2c0.2-0.3,0.7-1.5,1-1.6c1.1-0.4,2.6,0.4,3.4,0.4c1.3,0.1,1.5-0.4,2.2-1c1.9,0.8,2,0,4.2,0.4
		c0.2,0,1.1,0.6,1.2,0.6c0.7,0.1,1.4-0.3,1.8-0.2c0.2,0,0.6,0.5,0.8,0.6c-0.1,0.4,0.1,0.6,0,1c0,0.1-2,2.9,0.6,2.2
		c0.1,0,0.4-0.6,0.6-0.6c0.4-0.1,0.6,0.2,0.8,0.2c-0.2,0.2,0.2,0.9,0.2,1c-0.2,0.1-0.1,0.4-0.2,0.4c-0.4,0.2-0.7,0.1-1,0.2
		c0,0.4-0.2,0.6-0.2,0.8c0.1,0.7,1.3,1.1,1.6,1.6c0.2,0.4,0.1,1,0.4,1.4c0.3,0.5,2.6,1.5,3.6,1.4c0.1,0,0.6-0.6,0.6-0.6
		c0.2-0.1,0.6,0.1,0.8,0c0.3-0.2,0.5-0.9,0.8-1c0.1-0.1,0.4,0.1,0.6,0c0.2,2.3,0.1,1.7,1.8,1.8c0-0.5,0.1-1.3,0-1.8
		c0,0-0.6-0.4-0.6-0.4c0.4-1.3-0.1-1,0.8-1.8c-0.2-0.1-0.3-0.4-0.4-0.4c-0.3-0.1-0.7,0.1-1,0c0.3-0.1-0.8-0.2-0.8-0.2
		c-0.1,0.1-0.1,0.4-0.2,0.6c-1,1.5-0.7,1.4-3.2,1.4c-0.1-0.4-0.1-1-0.4-1.4c-0.2-0.3-0.9-0.4-1.2-0.6c-0.3-0.3-0.2-0.2-0.4-0.6
		c0,0,0-0.6,0-0.6c0.1,0,0.7,0.1,0.8,0c0-0.1,0.1-0.7,0.2-1c-1,0,0.1-1.6,0.2-1.8c-0.7-0.5-1.2-1-1.8-1.6c0.1-0.4,0.2-0.4,0.2-0.8
		c2.1-1.2,2.5-1,3.6,1c0.1-0.2,0.7-0.2,0.8-0.4c0.2-0.2,0-0.5,0.2-0.8c0.8-1.3,1.8-0.7,2.8-0.2c-0.2,1.5,0,1.8,0.2,2.8
		c0.2-0.1,0.6,0.1,0.8,0c0.3-0.1,0.6-1.1,1-1.2c1.5-0.4,1.7,0.8,2.4,1.2c0.3,0.2,0.6,0,1,0.2c0.4,0.2,0.7,0.8,1,1
		c0.2-0.1,0.4,0,0.6,0c0.3-0.1,0.6-0.7,0.8-0.8c0.7-0.3,1.1,0,1.8,0c0,0.1,0.4,0.6,0.4,0.6c0.3,1.1-0.6,1.6,0.2,2.2
		c0.2-0.1,0.6,0.1,0.8,0c0.3-0.1,0.4-0.8,0.6-1c1.1-0.8,1.9,0,2.8,0.4c0,0.6,0,1.2,0,1.8c-0.5,0.2-1.6,0.5-1.8,1
		c-0.1,0.2,0.1,0.6,0,0.8c0.5-0.1,0.4,0.3,1,0c0.7-0.4,0.3-1.3,1.6-1.2c0.8,0.1,1.5,0.9,1.8,1.6c0,0,0.5,0.3,0.2,0.4
		c-0.3,0.2-0.7,0.8-0.6,1.4c0,0.1,0.5,0.3,0.6,0.4c0.5,0.6,0.4,1.1,0.6,2c-0.2,0.1-0.4,0.1-0.4,0.4c-0.1,0-0.5,0-0.6,0v0.6
		c2.7-1.3,3-0.1,5.6,0.6c0.1,0.4,0,1.1,0.2,1.6c0.1,0.2,0.7,0.5,0.8,0.8c0.1,0.4-0.1,0.8,0,1.2c-0.2,0.1-0.3,0.1-0.4,0.4
		c-0.3,0-0.8-0.1-1,0c-0.1,0.1-0.3,0.8-0.4,0.8c0.2,0,0.5,0.3,0.6,0.4c1.1-0.7,0.7-0.6,2.2-0.6c0,0.5,0.2,0.3,0.2,0.8
		c0,0.2-0.6,0.7-0.6,0.8c-0.1,0.7,0.3,0.9,0.4,1.2c0.1,0.4-0.1,0.8,0,1.2c0.1,0.4,0.7,0.8,1,1.2c-0.1,0.1,0,0.5,0,0.6
		c-0.1,0.5-1,0.8-1.4,1c0.5,1.7,1.1,2.2,1.4,4.2c-0.2,0-0.5,0.4-0.6,0.4c-1.2,0.3-1.8-0.9-2.4-1.4c-0.1-0.1-0.3-0.5-0.4-0.6
		c-0.1,0.4-0.2,1.4-0.4,2c0,0.2-0.6,0.6-0.6,0.8c-0.2,1.2,1,1.3,1.2,2.2v0.2c0-0.2-0.2,0.6-0.2,0.8c0.1,0.3,1.6,3.1,0.8,3.6
		c-1.2,0.8-1.9-0.4-2.6-0.6c-0.1,0-0.5,0-0.6,0c-0.1,0.2-0.4,0.3-0.4,0.4c-0.2,0.6,0,1.7,0,2.4c0.1-0.4,0.2,0.2,0.2,0.2
		c-0.7,1.5-0.5,1.1-2.2,1c-0.2-0.7-0.6-3.2-1.2-3.6c-0.5-0.3-1.1,0-1.6-0.2c-0.1,0-0.6-0.6-0.6-0.6c-0.4-0.1-0.6,0.2-0.8,0.2
		c0.2,0-0.2,0.6-0.2,0.6c-0.1,0.7,0.7,2,0.8,2.4c0.1,0.8-0.3,1.5-0.4,2l0.2,0.6c0.4-0.1,0.8,0.1,1.2,0c0.9-0.3,0.6-2.1,2.2-1.4
		c1.6,0.7,0.6,2.4,0.2,3.4c-1-0.1-1.5-0.1-2.4-0.2c0.4,1.4,0.3,1.2,0,2.4c-0.2,0-0.7,0.2-1,0.4c0,0-1.3-1.3-1-1.4
		c0.9-0.3,0.4-2.5,0-3.2c-0.3-0.5-1.3-0.8-1.8-1c0.2,2.6-0.1,2,1.6,3.6c-0.2,0.7-0.2,0.9-0.4,1.6c0.1,0.1,0.5,0.3,0.6,0.4
		c0.2,0.4-0.2,0.6,0.2,0.8c0,0-0.4,1-0.4,1.2c0.2-0.1,0.6-0.1,0.8-0.2c0.1-0.1,0.3-0.6,0.4-0.6c0.2-0.1,1,0.2,0.8,0.2
		c0,0.1,0.6,0.3,0.6,0.4c0.2,0.6-0.2,1.6,0,2.2c0.2,0.4,1.2,0.3,1,1.6c-0.1,0.5-0.9,0.9-1.2,1.2c0.6,1.3,0.6,0.8,0.2,2
		c-0.3,0.9-0.6,1.9-1.4,2.2c-2.2,0.9-2.5-0.4-2.2-2.2c-0.1-0.1-1-0.4-1-0.6V358h-0.4c-0.2,0.5,0,0.9-0.4,1.2l-0.2,0.2
		c0.1,0.1-0.1,0.5,0,0.6h0.2c0.8,0.4,1.1,1.1,1.6,1.8c-2,0.4-2,1.2-2.6,3.4c0.5,0.2,1.5,1,2,1c1.1,0,0.8-0.6,1.2-0.8
		c0.4-0.2,0.6,0,1-0.2c0.2,0.2,0.5,0.5,0.8,0.6c-0.2,0.6,0.1,1-0.2,1.4c0,0-0.8,0.4-0.8,0.4c-0.2,0.7,0.6,0.7,0.4,1.6
		c-0.1,0.4-0.8,0.7-1,1c-0.2,0.3,0,0.6-0.2,0.8c-0.3,0.6-1.2,0.9-1.8,1.2c0.1,0.4-0.1,0.8,0,1.2c0.1,0.2,0.8,0.7,0.8,1
		c0.1,1.1-1,1.7-1.8,2c-0.4,0.2,0.6,0.4,0.8,0.4l0.4-0.4c1.8-0.5,1.4,1.2,1.4,2.2c-0.3,0-0.3,0.4-0.4,0.4c-1,0.3-2.2-0.8-2.8-1
		l-0.4,0.6c0,0.1,0.6,0.3,0.6,0.4c0.1,0.3,0,0.8,0,1.2c0.3-0.1,0.1,0.3,0.6,0.2c0.1,0,0.3-0.5,0.4-0.6c1-0.6,1.4-0.1,2.2,0.4
		c-0.8,2-0.8,2.8-3.2,1.6c0,0,0,0.6,0,0.6c0.8,0.3,1.2,0.3,1.6,1c0,0.1,0.3,0.2,0.4,0.2c-0.1,0.2,0.1,0.6,0,0.8
		c-0.1,0.4-0.9,0.8-1,1.2c-0.3,1.2,0.2,2,0,3.2c0.2-0.1,0.4,0.3,0.8,0c0.4-0.4,0.1-2,0-2.8c0.4,0.1,0.7-0.2,1.4,0
		c0.1,0,0.1,0.4,0.2,0.4c0,0.2,0.6,0.5,0.4,1.2c0,0-0.4,0.5-0.4,0.6c0,0.3,0.9,0.5,0.8,1.6c-0.1,0.7-0.7,0.5-0.4,1.4
		c0,0.1,0.5,0.5,0.6,0.6c0,0,0,0.5-0.2,0.2c-0.1,0.1-0.2,0.7-0.4,0.8c-0.4,0.2-1.2,0-1.6,0v0.4h0.2c0,0.1,0.1,0.9,0.2,1
		c0.9,0.8,1.8-0.1,2.8,0.2c0.1,0,0.4,0.5,0.6,0.6c0,0.2-0.1,0.6,0,0.8c-0.7,0.8-1.2,1.3-2.2,1.8c0,0.2,0.1,1,0,1.2
		c-0.2,0.4-0.6,0.1-1,0.4c-0.5,0.3-0.6,1.4-0.8,2c-0.2,0-0.3,0.4-0.4,0.4c-2.5,0.9-1.6-2-1.2-3c-0.4-0.1-0.4,0-0.6-0.2
		c-0.8-0.6-0.7-0.5-1.8-0.2c0.1,0.2-0.4,0.3-0.2,0.4c1.1,0.7,0.7,2,0.6,3.6l0.6,0.2c1,1.8,0.2,1.7-1.6,1.6c0.1-2,0.4-1.4-1.2-1.8
		c-1,1.5-1.4,1.8-3.4,1.8c-0.1-0.2-0.2-0.8-0.4-1c0.1-0.1,0.6-0.5,0.6-0.6c-0.1-0.1,0-0.8,0-1c-0.6-0.1-0.8,0-1.2-0.2
		c-0.3,1.1-0.5,2.8-1,3.8c0.6,0.5,1,0.8,1.4,1.4c-0.2,0.3-0.1,0.7-0.2,1c-0.1,0-1,0.1-0.8,0c-0.6-0.3-0.6,0-1-0.6
		c-0.1-0.1-0.4-1.1-0.4-1.2c-0.2,0.1-0.8,0.2-0.8,0.2c-0.1,0.2-0.2,0.5-0.4,0.6c-0.2-0.1-0.3,0.3-0.4,0.4c1.5,0.8,1.5,0.6,1.2,2.2
		c-0.3,0-0.3,0.4-0.4,0.4c-0.2,0.1-0.9-0.2-0.8-0.2h-0.4c-0.3-0.1-0.3-0.9-0.6-1c-0.2-0.1-0.6,0.1-0.8,0c-0.2,0.9-0.6,2.3-1.4,2.6
		C303.3,410.6,303.3,410.6,303.2,410.6L303.2,410.6z M386.6,401c-0.2-0.3-0.7-0.5-0.8-0.8c0,0,0.1-0.6,0.2-0.8
		c-0.2,0-0.3-0.4-0.4-0.4c-0.5-0.2-1.2-0.1-1.6-0.2c-0.1-1.9-0.7-2.7-0.6-4.2c-0.8,1.5-1.4,1.4-2.6,0.4c-0.2,0.2-0.3,0.8-0.6,1
		c-0.6,0.4-3.5,0.2-4.6,0.4c0-0.2-0.4-0.3-0.4-0.4c-0.3-0.7,0-2,0-2.8c0,0-0.4-0.2-0.4-0.2c-0.1,0.3-0.4,0.4-0.6,0.6
		c0.5,1.7,0.1,4-2,2.6c-0.3-0.2-0.2-0.8-0.4-1c-0.2-0.2-0.8-0.3-1-0.4c0.1-0.6-0.1-0.9,0.2-1.4c0.4-0.7,2.1-0.6,2.4-1.4
		c0.1-0.3-0.1-0.6,0-1c-0.1,0-0.6,0-0.6,0c-0.6,0.6-0.8,0.9-1.2,1.8c-0.7,0.1-1.8,0-2.6,0.2c-0.1,0-0.5,0.6-0.6,0.6
		c-0.8,0.1-1-0.5-1.8-0.2c-0.1,0-0.2,0.4-0.4,0.4c1,0.6,1,0.5,0.8,2l-0.6,0.2c-0.2-0.2-0.5-0.2-0.6-0.4c-0.1-0.2-0.1-0.9-0.2-1
		c-0.5-0.4-1.2,0.1-1.6-0.6c-0.2-0.3-0.5-1.9-0.6-2.2c-3.9,1.1-2.4-1.8-4.8-1.8c0,0-0.5,0.2-0.6,0.2v0.4c0.3,0.1,0.7,0,1,0
		c-0.1,0.1,0.2,0.3,0.2,0.4c-0.2,0.2-0.3,0.1-0.4,0.4c-0.8,0.1-2,0.5-2.6,0.4c-0.4-0.1-0.9-0.8-1.2-1c-0.7-0.4-1.6-0.4-2.4-0.8
		c-0.2-0.1-0.4-0.6-0.6-0.6c-0.7-0.1-0.8,0.4-1.4,0.2c-0.1,0-0.3-0.5-0.4-0.6c-0.7-0.9-0.6-1.3,0-2.4c-0.5-0.1-0.9-0.2-1.6-0.4
		c0.1,0.2-0.1,0.6,0,0.8c0,0.1,0.5,0.4,0.6,0.4c-0.1,0.3,0.1,0.7,0,1c0,0.1-0.5,0.4-0.6,0.6c-0.4-0.2-0.9-0.1-1.2-0.2
		c-0.1-0.8-0.3-2.2-0.4-3c-0.6,0-0.6,0.1-1.2,0c0.1-0.3-0.1-0.7,0-1c0.1-0.3,1.1-0.6,1.4-0.8c0,0-0.1-1.1-0.2-0.8
		c-0.1-0.2,0.1-0.4,0-0.6c0-0.1-0.5-0.4-0.6-0.6h-0.4c-0.3,0.6-0.4,1.1-0.8,1.6c-0.9,1.2-0.7,0.5-2.2,1c-0.1,0-0.3,0.6-0.4,0.6
		c-0.3,0.1-0.7-0.1-1,0c-0.1-0.2-0.6-0.4-0.6-0.6c-0.2-0.6,0-1.2-0.2-1.6c-0.4-0.7-1.4-0.4-2-0.8c-0.8-0.4-1.2-2.2-1.4-3.2
		c-1.6,0.7-0.6,0.7-2.2,0c0.1-0.3-0.1-0.5-0.2-0.8c0.8-0.6,0.8-0.6,1.8-0.8c-0.1,0,0-0.7-0.2-0.8c-0.2-0.1-0.7,0-1,0
		c-0.1-0.2-0.6-0.6-0.6-0.8c-0.2-0.8,0.4-1.6,0.4-2.2c0-0.4-0.2-0.6-0.2-0.8h-0.4c-0.4,0.1-0.8,1.3-1.2,1.4
		c-0.6,0.2-0.7-0.2-1.2-0.2c-0.5-1.7-0.6-1.6,0.6-2.6c-0.4-0.4,0.1-2.6,0.2-3.4c-0.3,0.3-0.7,0.5-1,0.8c0.4,0-1.1,0.2-0.6,0
		c-0.2-0.2-0.6,0-0.8-0.2v-0.4c-0.6-1.8,0.6-2,1.2-3.6c-0.1-0.1,0-0.5,0-0.6c-0.1-0.2-1.1-0.5-1.2-0.8c-0.1-0.2,0-0.6,0-0.8
		c0-0.2-0.6-0.9-0.6-1c-0.1-0.4,0.1-0.8,0-1.2c0.4-0.3,1.1-0.8,1.4-1.2c0.2-0.3,0.1-0.7,0.4-1c0.3-0.3,0.8-0.3,1-0.6
		c0.6-0.8,1.1-2.9,1.4-4c0.3-0.1,0.7,0,1-0.2c-0.1-0.1-0.1-0.5-0.2-0.6c-0.2-0.3-0.9-0.3-1-0.6c-0.4-0.6,0.1-2.2,0-3.2
		c0.4-0.2,0.1,0,0.2-0.4c0.8,0,1.2-0.1,2.2,0c-0.1-0.2,0.1-0.6,0-0.8c-0.2-0.6-1.3-1.1-0.6-2.2c0.1-0.2,0.7-0.2,0.8-0.4
		c0.3-1-0.7-1.5,0.2-2c0.2-0.1,1.1-0.3,1.4-0.4c-0.1-0.7-0.4-1.7,0-2.4c0.1-0.1,0.6-0.3,0.6-0.4c0.1-0.5-0.2-1.2,0-1.6
		c0-0.1,0.3-0.1,0.4-0.2c0.5-0.5,1.1-0.4,1.6-0.8c0.2-0.1,0.1-0.4,0.2-0.6c0.8-1.3,1.8-0.6,2.8,0c-0.1-1.4-0.2-1.9-0.4-3.2
		c0.1,0,1.2-0.3,1-0.2c0.6,0.4,1.2,0.2,1.4,1c0,0.2-0.1,0.6,0,0.8c0.1,0.2,0.7,0.1,0.8,0.2c0.1-0.2,0-0.4,0-0.6
		c0-0.1,0.6-0.5,0.6-0.6c0.1-0.3-0.3-1.1-0.2-1.2c-0.1,0-0.4-0.3-0.4-0.4c0,0,0-0.5,0-0.6c1-0.4,1.2-0.6,2.8-0.4c0-0.1-0.1-0.9,0-1
		c-0.2-0.2-0.6-0.4-0.8-0.6c0.1-0.2,0-0.6,0-0.8c0.3-0.1,0.3-0.3,0.4-0.6c1.1,0.2,1.2,0.2,1.8,0.6c0.2,0.1,0.9,0.4,1,0.6
		c0.4,0.5,0.1,1.1,0.6,1.4c0.2,0.1,0.7-0.1,1,0l0.4,0.4c1,0.2,0.7-0.1,1.4-0.2c-0.1-0.3,0-0.8,0-1.2c-0.6-0.2-1.1-0.4-1.6-0.6
		c0-0.3,0.2-1.4,0.2-1.4c0.3,0,0.6-0.3,1.2-0.2c0.3,0.1,0.7,0.6,1,0.8c1.2,0.8,2,0.3,3.4,0.8c0.1,0,0.2,0.4,0.4,0.4
		c-0.1,0.4,0.2,1,0,1.4h-0.2c-0.4,0-0.7,0.5-1,0.6c0,0.4,0.1,0.8,0,1.2c0.2,0.2,0.3,0.6,0.6,0.6h0.2c0.4-0.4,0.8-1.2,1.4-1.4
		c0.2-0.1,0.6,0.1,0.8,0c-0.2-0.7-0.2-1-0.4-1.8c0.7-0.3,1.9-1,3-0.4c1,0.5,0.3,1.3,0.2,1.8c-0.1,0.5,0.2,0.7,0.2,1
		c1.3,0.1,2.5,0.3,3.8,0.8c0.1,0,0.1,0.4,0.2,0.4h0.4c0.3,0.5,0,1.2,0.2,1.8c0.1,0.4,0.8,0.7,1,1c0.2,0.4,0,0.6,0.2,1
		c0.9,0,2.7-0.1,3.6,0.4c0.4,0.2,0.6,0.9,1,1.2c0.2,0.1,0.4-0.1,0.6,0c1.3,0.5,0.4,1.8,0,2.4c0.7,0.2,2,0.4,2.2,1
		c0.1,0.3-0.2,0.9,0,1.2h0.2c0.8,0.4,1.4,1.2,2,1.8c0.2-0.1,0.6,0.1,0.8,0c0.5-0.2,0.6-1.2,1.8-0.8c0.1,0,0.4,0.5,0.6,0.6
		c-0.2,0.3,0,0.7-0.2,1c-0.1,0.1-1.1,0.6-1.2,0.8c-0.1,0.2,0.1,0.4,0,0.6c1.9,0.5,2.2,0.4,2,2.6c0.7,0.4,1.3,0.5,2,1
		c0.2,0.1,0.2,0.4,0.4,0.6c-0.1,0.9-0.4,2.2,0.4,2.6c1.5,0.8,1.9-0.5,2.6-0.6c0.8-0.2,0.9,0.3,1.4,0.4c0,0.5,0.2,0.3,0.2,0.8
		c0,0.2-0.4,0.6-0.4,1c0,0.1,0.6,0.6,0.6,0.6c0.1,0.2-0.1,0.4,0,0.6c-0.3,0.1-0.9,0.4-1.2,0.6c0.6,1.3,0.5,1.7,0,3
		c0.7-0.4,1.3-0.7,2-1c0,0,1,0,1.2,0c0.2,0.3,0.8,2.2,1,2.4c0.5,0.4,1.3,0.1,1.8,0.4c0.4,0.3,0.2,1.1,0,1c0.1,0.3-0.1,0.7,0,1
		c0,0.1,0.4,0.2,0.4,0.4c1.6-0.1,1.8,0,2.8,0.4c0.2,1.4,0.2,2-0.8,2.8c-0.1,0.1-0.6,0.3-0.6,0.4c-0.2,0.4,0.1,0.9,0,1.4
		c0.3,0.1,0.3-0.2,0.4,0.2c0.3-0.1,0.7,0.1,1,0c0.3-0.1,0.2-0.8,0.4-1c1.2-0.8,2.7-0.2,3,0.8c0.2,0.8-0.1,0.8-0.2,1.4h-0.4l0.2,1.6
		c-0.7,0-0.8,0-1.2,0c-0.1,0.3,0.1,0.7,0,1c0,0.1-0.5,0.3-0.6,0.4c-0.2,0.3,0,0.6-0.2,1c0.2,0.1,0.4,0.5,0.6,0.6
		c0.1,0,0.5-0.1,0.6,0c0.4,0.3,0.6,1.2,1,1.4c0.4,0.2,1.3,0,1.8,0c0.3,1.1,0.7,1.9,1,2.8c-0.2,0.1-0.2,0.7-0.4,0.8
		c-0.4,0.2-0.9,0.2-1.2,0.4c-1.2,0.7,1.3,1.3,1.8,1.8c0.2,0.2,0,0.6,0.2,0.8c-0.2,0-2.7,0.6-2.8,0.6c-0.1,0.1-0.7,1.6-0.8,1.8
		c1,0.3,1.1,0.5,1.8,1c-0.3,0.3-0.3,0.8-0.6,1c-0.3,0.2-0.5,0.1-0.8,0.2c0,0-0.1,0.7-0.2,1c0.6,0.3,1.1,0.5,1.6,0.8
		c-0.1,0.3,0.1,0.7,0,1c0,0.1-0.5,0.3-0.6,0.4c-0.3,0.4-0.4,1.2-0.6,1.6c-0.1-0.3-0.2,0.6-0.2,0.6c0.9,0.5,0.2,1.7-0.8,1.6l-0.4-0.4
		c-0.4-0.2-0.7-0.2-1-0.4c0,0,0-1.3,0-1.2c0.1-0.2,0.5-0.4,0.6-0.6c0.2-0.4,0.1-0.8,0.2-1.2c-0.4,0.4-0.8,0.6-1.2,1
		c-0.3-0.1-0.7,0.1-1,0c-0.2-0.1-0.6-0.9-0.8-1c-0.3-0.1-0.7,0.1-1,0l-0.2,0.4c-0.1-0.3-0.2,0.8-0.2,0.8c0,0,0.6,0.4,0.6,0.4
		c0.1,0.5-0.2,0.8-0.2,1h-0.4c-0.3-0.1-0.5-1-0.8-1.2c-0.1-0.1-0.5,0-0.6,0c-0.1,0-0.7-0.6-0.8-0.6c-1.2-0.4-2.3-0.4-3.8-0.4
		c-0.4-0.7-0.3-0.7-0.6-1.8c0,0-0.6,0-0.6,0c0,0.5-0.2,1.4-0.2,2.2c0.4,0.2,0.6,0.1,1.2,0.2c-0.1,0.9-0.1,2-0.4,3c0.9-0.2,1-0.3,2,0
		l0.2,0.4c0.3,0.1,1,0,1.4,0c0,0.2,0.3,0.4,0.2,0.8c-0.2,0.8-1.3,1.6-1.8,2.2c-0.2-0.3,0-0.5-0.2-0.8c-0.2-0.2-0.4,0-0.6-0.2
		c-0.2-0.2-0.4-0.8-0.6-1c0,0.1-0.5,0.1-0.6,0.2c-0.2,0.2-0.1,0.5-0.2,0.8c-0.2,0-0.3,0.4-0.4,0.4c-0.7,0.3-1.2-0.3-1.6-0.4
		l-0.2,0.2c0.1,1.2-0.1,1.4-0.2,2.2C387.2,401,386.7,401,386.6,401L386.6,401z"/>
</g>
</svg>
