<svg id="Layer_1" data-name="Layer 1" xmlns="http://www.w3.org/2000/svg" viewBox="0 0 503.27 503.98"><defs><style>.cls-1{fill:#fff;}</style></defs><title>NSF Logo White</title><path class="cls-1" d="M289.39,533.19c.12-6.58-.34-13.07-2.63-19.32a32.17,32.17,0,0,0-12.1-15.67,9.27,9.27,0,0,0-1.91-1c-5.81-2.29-11.54-4.86-17.49-6.74a46.23,46.23,0,0,0-24.17-1c-9.86,2.19-16.84,8.48-21.91,17-1.88,3.15-3.33,6.55-5.1,10.08l-11.16-4.67c.25-.65.45-1.2.68-1.74,2.83-6.72,4.76-13.64,4.16-21-.58-7-2.84-13.41-8-18.49-2.43-2.38-4.9-4.74-7.29-7.17A46.22,46.22,0,0,0,165.28,452a51.48,51.48,0,0,0-9.12-2.68,31.4,31.4,0,0,0-22.57,4.94c-3.87,2.49-7.25,5.74-10.83,8.67a6.76,6.76,0,0,0-1,1.19l-8.87-8.69c2-2.25,4.13-4.4,6-6.73,5.55-6.79,8.88-14.44,8.64-23.37a22.35,22.35,0,0,0-1.79-8.81c-1.25-2.74-2.43-5.52-3.5-8.33a55.71,55.71,0,0,0-13.78-20.37,32.38,32.38,0,0,0-21-9.35,45.27,45.27,0,0,0-21.34,4.19l-1.38.6a3.34,3.34,0,0,1-.5.09c-1.52-3.71-3-7.46-4.65-11.35,1.39-.59,2.66-1.11,3.92-1.67,6.61-3,12.62-6.78,17-12.72,3.86-5.25,6.31-11.05,6-17.73s.15-13.42-1.06-19.9c-1.51-8.11-4.43-15.94-10.56-22A36,36,0,0,0,54.1,287.88c-3.69-.52-7.43-.62-11.26-.91V274.84h1.93c6.88.08,13.6-.78,19.93-3.7a32,32,0,0,0,13-11,7.9,7.9,0,0,0,.9-1.6c2-4.87,3.85-9.76,5.86-14.61,1.66-4,2.13-8.15,2.47-12.41.69-8.85-.08-17.31-5.31-24.88-4.73-6.84-11.2-11.45-18.71-14.74-.62-.27-1.25-.5-1.87-.76l-2-.82,4.69-11.21c3.72,1.22,7.26,2.6,10.91,3.54,9.4,2.42,18.4,1.46,26.75-3.78a8.31,8.31,0,0,0,1.62-1.18c4.87-5.09,10.33-9.75,14.44-15.4,10.72-14.73,12.42-29.28,2.15-44.58a44.21,44.21,0,0,0-3.93-5c-1.42-1.56-3-3-4.5-4.35l9-9.32a9.87,9.87,0,0,0,1.06,1.6c5.69,5.76,12,10.57,20.07,12.53,6.16,1.49,12.28,1.54,18.22-1.12,2.34-1.05,4.7-2.08,7.1-3a57.09,57.09,0,0,0,21.22-14.28A32.75,32.75,0,0,0,197.19,70,47.84,47.84,0,0,0,193,52.54c-.24-.56-.5-1.12-.83-1.85L203.55,46c1,2.24,1.94,4.39,3,6.47a38.34,38.34,0,0,0,11,14c5.27,4,11.12,6.65,17.93,6.41s13.63-.45,20.43-.9c1.89-.13,3.74-1.06,5.6-1.66,5.62-1.82,11-4.11,15.35-8.27,6.45-6.13,9.78-13.79,10.9-22.46.44-3.41.46-6.88.68-10.41h12.06c.12,2.47.2,4.91.34,7.34a41.36,41.36,0,0,0,2.74,12.72A31.2,31.2,0,0,0,315.37,64.1a27.34,27.34,0,0,0,5,2.37c3.67,1.49,7.31,3.14,11.09,4.29a53.18,53.18,0,0,0,26.32,1.41c10-2,17.12-8.37,22.27-17,1.91-3.19,3.39-6.64,5.16-10.16l11.13,4.66c-.84,2.23-1.72,4.33-2.44,6.49-2.79,8.26-3.62,16.57-.5,25a24.67,24.67,0,0,0,6.28,10c4.87,4.45,9.29,9.52,14.61,13.32,13.63,9.76,27.21,11.48,41.61,2.83a50.59,50.59,0,0,0,6.09-4.43c1.93-1.61,3.67-3.44,5.39-5.06l9.1,8.9a10.57,10.57,0,0,0-1.67,1.12c-5.66,5.64-10.39,11.88-12.34,19.8-1.55,6.27-1.59,12.5,1.13,18.54,1.52,3.36,3,6.73,4.37,10.16a49.07,49.07,0,0,0,12.7,17.89c9.32,8.65,20.39,10.6,32.46,7.74,3.77-.9,7.4-2.37,11.24-3.62,1.47,3.59,3,7.34,4.55,11.15-2.37,1.08-4.63,2-6.81,3.13-7.74,3.91-14,9.33-17.69,17.39-2.1,4.57-2.56,9.33-2.4,14.23.15,4.58-.05,9.22.61,13.73A70.38,70.38,0,0,0,505.91,250c4.72,14,15,21.19,29.18,23.36,3.61.55,7.34.3,11,.42v12.42c-3.57.22-7.15.25-10.69.7-9.11,1.14-16.85,4.92-22.79,12.13-2.73,3.32-4,7.33-5.56,11.2-2.32,5.73-4.87,11.42-4.81,17.82,0,2.07-.16,4.14-.29,6.2a31.41,31.41,0,0,0,3.38,16.39c4.53,8.91,12,14.52,21,18.43,1.21.53,2.44,1,3.74,1.53L525.23,382c-.75-.32-1.3-.57-1.87-.8-6.72-2.81-13.64-4.65-21-4.08-5.87.45-11.56,2-15.94,5.91-8.79,7.81-17.06,16.18-21.1,27.69-.06.16-.13.31-.2.46a30.69,30.69,0,0,0-2.83,12.67c-.11,8.25,2.71,15.57,7.58,22.1,2.27,3,4.91,5.78,7.18,8.41l-8.49,8.74c-.74-.75-1.52-1.56-2.32-2.33-4.78-4.64-10.06-8.54-16.46-10.66-5.92-1.95-12-2.56-17.95-.52-4.95,1.69-9.67,4.07-14.5,6.11-7.22,3-12.76,8.31-17.59,14.17-7.54,9.17-8.55,19.88-5.73,31.08.88,3.49,2.26,6.85,3.46,10.41L386.21,516c-.33-.77-.59-1.37-.84-2-2.65-6.42-6-12.37-11.26-17.07-4.74-4.24-10.19-7.26-16.58-7.7a129.6,129.6,0,0,0-16.25.13,54.17,54.17,0,0,0-9.69,1.62,66.71,66.71,0,0,0-7.43,2.59,32,32,0,0,0-18.66,17.51c-3.2,7-4,14.49-3.69,22.12Zm5-79.25c95.3.06,172.6-77.2,172.8-172.72.19-95.18-77.34-172.79-172.68-172.84S121.76,185.72,121.7,281.1,199,453.87,294.37,453.94ZM165.14,129.2a10.26,10.26,0,0,0,3,7c3.32,3.65,7.51,6.15,11.64,8.72a1.76,1.76,0,0,0,1.53-.33,185.36,185.36,0,0,1,29.58-19.9,2,2,0,0,0,.84-1.63c-.89-4.08-1.75-8.18-3-12.17a18.25,18.25,0,0,0-3-5.54,7.86,7.86,0,0,0-9.41-2.57c-10.11,4-19.13,9.68-26.39,17.87a42.84,42.84,0,0,0-4.26,6.58A6.92,6.92,0,0,0,165.14,129.2ZM431.32,394.44a46.56,46.56,0,0,0,9.78,12.82,12.29,12.29,0,0,0,3.34,2.19c3.31,1.4,6.43,1.33,9.27-1.32a67.43,67.43,0,0,0,16.57-25.08,36.71,36.71,0,0,0,1.84-6.6c.86-4.54-.62-7.48-4.71-9.67a14.26,14.26,0,0,0-3.06-1.33c-3.78-1-7.58-1.86-11.4-2.65a2,2,0,0,0-1.59.93c-2.2,3.69-4.13,7.55-6.5,11.13C440.51,381.42,435.92,387.81,431.32,394.44ZM242.07,450.9a40.46,40.46,0,0,0-3.54,4.94,71.83,71.83,0,0,0-4.92,10.94c-1.37,4.35.71,8.32,4.85,10.11,10.47,4.52,21.37,6.77,32.81,5.6,7.66-.77,10.54-4,10.05-11.67-.26-4-1.24-8-1.86-12.06-.15-1-.77-1-1.54-1.1-5.36-.71-10.77-1.26-16.08-2.28C255.28,454.12,248.79,452.44,242.07,450.9ZM387.79,102.61a5.88,5.88,0,0,0-4.65,2.29,11.79,11.79,0,0,0-2.6,4c-1.36,4.71-2.45,9.49-3.54,14.27-.09.41.44,1.19.88,1.47,1.76,1.08,3.61,2,5.4,3a176.08,176.08,0,0,1,22.36,15.36c.62.49,1.09,1.16,2.16.53a51,51,0,0,0,11.12-8.28,19.92,19.92,0,0,0,3.4-4.52,8,8,0,0,0-1.34-9.53,20.78,20.78,0,0,0-2.59-2.63c-5-3.79-9.8-7.83-15.05-11.18A30.82,30.82,0,0,0,387.79,102.61ZM322.63,79.36c-1.73.3-5.09.77-8.4,1.5-3.13.69-4.71,3-5.34,6a11.73,11.73,0,0,0-.33,3.81c.52,4.15,1.25,8.26,1.84,12.4.16,1.13.58,1.54,1.77,1.66a178.62,178.62,0,0,1,30.07,5.62c1.39.39,3,1.37,4.12.95s1.91-2.2,2.8-3.41a37.37,37.37,0,0,0,6.44-12.58c1.33-4.91-.6-8.73-5.16-10.91C342.15,80.47,333.25,79.91,322.63,79.36ZM430,166.61a3.47,3.47,0,0,0,.24.59,186.94,186.94,0,0,1,20.29,29.89,1.6,1.6,0,0,0,1.32.54,43.51,43.51,0,0,0,13.56-3.48,15.53,15.53,0,0,0,4.72-3.08c2.36-2.38,3.36-5.25,2.09-8.68a78.15,78.15,0,0,0-10.85-19.17A36.76,36.76,0,0,0,450,152.79a7.83,7.83,0,0,0-9.35.73,17.56,17.56,0,0,0-3.27,3.11C434.8,159.94,432.4,163.36,430,166.61ZM142.26,410.25a9.21,9.21,0,0,0,7.37-3.1c3.07-3.6,5.79-7.49,8.6-11.31a1.56,1.56,0,0,0-.21-1.41A182.14,182.14,0,0,1,138,364.55a1.6,1.6,0,0,0-1.25-.69A44.51,44.51,0,0,0,123,367.45a15.25,15.25,0,0,0-4.68,3.13c-2.27,2.37-3.25,5.21-1.94,8.57a73.91,73.91,0,0,0,11.93,20.27,36.91,36.91,0,0,0,10,9.07A39,39,0,0,0,142.26,410.25ZM269.47,78.78l-.06-.46c-6.12,1-12.3,1.6-18.31,3a36.74,36.74,0,0,0-14.76,6.88c-2.93,2.33-3.59,5.25-2.77,8.67a12.82,12.82,0,0,0,1.22,3.46c2.12,3.6,4.34,7.15,6.6,10.66a1.63,1.63,0,0,0,1.48.46,171.72,171.72,0,0,1,33.28-6.59c1.91-.18,2.44-1,2.82-2.62,1.18-5.09,2.06-10.19,1.37-15.42-.67-5-4-7.93-9-8C270.7,78.77,270.09,78.78,269.47,78.78Zm78.83,371.5c-5,1.31-9.56,2.74-14.2,3.65-6.84,1.35-13.76,2.32-20.63,3.51-.71.12-1.78.51-1.94,1a43.27,43.27,0,0,0-2,16.53c.48,5.27,4,8.48,9.26,8.54a65,65,0,0,0,27.38-5.5,48,48,0,0,0,7.45-4.44c2.91-2,3.42-5,2.7-8.21a15.3,15.3,0,0,0-1.47-4.08C352.75,457.56,350.48,453.92,348.3,450.28ZM92.73,251.15c.52,3.18.91,6.39,1.58,9.54.83,3.95,3.69,5.63,7.46,6.07,4.64.55,9.12-.54,13.6-1.43,2.58-.51,2.57-.53,2.84-3.12a170.76,170.76,0,0,1,5.93-30.37c1-3.46,1-3.44-1.87-5.57a38.07,38.07,0,0,0-13-6.67c-4.75-1.23-8.67.67-10.65,5.11A72.91,72.91,0,0,0,92.73,251.15ZM117.45,297A46.31,46.31,0,0,0,102,294.91c-6.11.26-9.49,3.78-9.61,9.82a76.77,76.77,0,0,0,2.5,19.41,38.64,38.64,0,0,0,7,15.1c2.37,3,5.34,3.62,8.82,2.78a9.82,9.82,0,0,0,2.69-.91c3.71-2.16,7.39-4.38,11-6.68.37-.24.49-1.26.35-1.83-1-4-2.28-8-3.07-12C120.11,312.83,118.86,305,117.45,297ZM423.61,433.32a9.69,9.69,0,0,0-3.49-7.32c-3.62-3-7.46-5.66-11.27-8.39a1.75,1.75,0,0,0-1.54.28,187.64,187.64,0,0,1-28.4,19.23,2.06,2.06,0,0,0-.86,1.65A45.64,45.64,0,0,0,381.38,452a20.21,20.21,0,0,0,2.8,4.72,8,8,0,0,0,9.31,2.45,62.78,62.78,0,0,0,25.84-18,39.19,39.19,0,0,0,3.82-6.26A5.6,5.6,0,0,0,423.61,433.32Zm72.84-178a65.31,65.31,0,0,0-4.79-24.16,47,47,0,0,0-4.53-8.34c-2.59-3.73-5.44-4.51-9.79-3.2a16.08,16.08,0,0,0-3.41,1.36c-3.08,1.81-6.06,3.78-9.13,5.59a1.83,1.83,0,0,0-.91,2.56,167.17,167.17,0,0,1,6.48,30.57c.17,1.44,0,3.31.77,4.17s2.74,1,4.2,1.3a36.28,36.28,0,0,0,13.29.84,8.64,8.64,0,0,0,7.82-8.85C496.46,256.58,496.45,256,496.45,255.36Zm-.3,54.59c-.57-3.28-1-6.59-1.74-9.84s-3.13-4.89-6.27-5.51a11.47,11.47,0,0,0-3.49-.3c-4.25.56-8.49,1.24-12.72,2-.4.07-.92.87-1,1.36a185.51,185.51,0,0,1-5.77,31.27c-1,3.77-1,3.78,2.11,6.05a36.66,36.66,0,0,0,13,6.42,8.48,8.48,0,0,0,10.14-4.95C494.33,328.06,495.59,319.15,496.15,310ZM200.22,459.23l.12-.42c2.81.13,4.59-.51,6.29-2.75a15.29,15.29,0,0,0,2.56-4.66c1.13-3.78,1.91-7.67,2.9-11.5a1.79,1.79,0,0,0-1.14-2.35,171.24,171.24,0,0,1-24.75-16c-1.55-1.19-3.09-3.23-4.68-3.27s-3.63,1.59-5.13,2.87a66.11,66.11,0,0,0-8.85,8.35c-3,3.66-2.44,8,.85,11.31,6.53,6.62,13.88,12.15,22.58,15.62C194,457.64,197.13,458.32,200.22,459.23ZM116.75,187.17c-.29,2.08,1,4.19,3.15,5.73a14.47,14.47,0,0,0,4.41,2.32c4.07,1.15,8.21,2.06,12.34,2.94a2,2,0,0,0,1.58-1,179.11,179.11,0,0,1,18.5-27.67,1.61,1.61,0,0,0,.19-2.3c-1-1.37-1.6-3-2.68-4.24-2.61-3-5.13-6.25-8.18-8.78-3.76-3.11-8-2.56-11.58.73a70.3,70.3,0,0,0-12.34,15.8A34.26,34.26,0,0,0,116.75,187.17Z" transform="translate(-42.84 -29.21)"/><path class="cls-1" d="M241,342.25a46.86,46.86,0,0,1-4.79-.05,3,3,0,0,1-1.69-1.09q-23.34-28.38-46.63-56.79-13.2-16.08-26.39-32.15c-.46-.56-.92-1.1-1.58-1.88-.07.63-.14,1-.14,1.33q0,33.64.05,67.29a30.1,30.1,0,0,0,.68,6,9,9,0,0,0,6.47,7.25c2.86.88,5.83,1.4,8.89,2.11v4.87H136.24c0-1.46-.08-2.9.06-4.31,0-.36.74-.83,1.21-.93,2-.42,4.09-.6,6.1-1.09,4.84-1.16,7.07-3.82,7.49-8.81.13-1.51.15-3,.15-4.53q0-38.85,0-77.69a4.42,4.42,0,0,0-1.17-3.33c-2.6-2.69-5-5.58-7.76-8.1-1.45-1.33-3.46-2-5.55-3.23V222.7c.53,0,1.06-.11,1.59-.11,11.24,0,22.48,0,33.72,0a2.87,2.87,0,0,1,2.49,1.31q28.07,34.57,56.16,69.14c.44.55.92,1.08,1.54,1.81a7,7,0,0,0,.16-1q0-26.43-.11-52.85a19.69,19.69,0,0,0-.45-3.66,10,10,0,0,0-7.4-8.08c-2.51-.72-5.12-1.09-7.82-1.65v-4.88h37.54v5c-2.12.48-4.27.84-6.35,1.46-4.64,1.37-6.49,3.8-6.78,8.61-.06,1.17-.06,2.35-.06,3.52v101Z" transform="translate(-42.84 -29.21)"/><path class="cls-1" d="M424,250.7h4.79v58.61h-4.91c-.75-3.62-1.3-7.21-2.24-10.69C419,289,412.83,284,402.88,283.18c-1.39-.11-2.78-.18-4.44-.29v39c0,.68,0,1.35,0,2,.29,5.3,2.5,7.95,7.7,9.06a48,48,0,0,0,5.48.72c1.77.17,3.56.21,5.46.32v5.11H354.74c0-1.46-.06-2.94.06-4.41,0-.31.71-.72,1.15-.8,2.25-.39,4.55-.57,6.78-1.06,4.51-1,6.56-3.47,6.87-8.06q.12-1.85.12-3.69,0-40.28,0-80.54a30.94,30.94,0,0,0-.4-5,7.75,7.75,0,0,0-6.42-6.68c-2.61-.56-5.29-.8-8.05-1.2v-5h97.63V258c-1.39,0-2.83.06-4.25,0-.29,0-.67-.62-.78-1-.81-2.91-1.48-5.85-2.34-8.74-2.93-9.8-9.6-15.41-19.54-17.37a72.86,72.86,0,0,0-21.85-1c-3.61.39-5,2-5.21,5.6-.09,1.33-.06,2.68-.06,4v36.52c9.67,1.56,18.89-3.57,22.12-12.55C422,259.34,422.81,255.09,424,250.7Z" transform="translate(-42.84 -29.21)"/><path class="cls-1" d="M263,342.49V299.37h5.73c.63,2.41,1.2,4.9,1.95,7.34,2.42,7.9,5.88,15.26,12.05,21,8.41,7.78,18.34,10,29.24,6.82,7.47-2.16,11.2-7.82,12.2-15.3.89-6.76-1.49-12.31-7.19-16.05a130.25,130.25,0,0,0-11.87-6.56c-6.64-3.43-13.39-6.67-20-10.18a51.21,51.21,0,0,1-6.89-4.76c-10-7.65-14.94-17.59-13.61-30.31,1.37-13.09,7.43-22.9,19.9-28.13a46,46,0,0,1,15.69-3.14c8.08-.41,15.76,1.39,23.28,4.11a29.59,29.59,0,0,0,4.5,1.29c3.47.66,5.16-.33,6.13-3.77.43-1.53,1.12-2.06,2.67-1.89a35.5,35.5,0,0,0,3.87,0V258c-1.65,0-3.26.09-4.85-.06-.41,0-.93-.8-1.09-1.32-2.46-8.08-6.18-15.45-12.24-21.47-6.27-6.25-13.79-9.33-22.72-8.68-7.54.54-13.71,5.06-15.12,11.64-1.69,7.84.2,13.69,6.49,17.75,3.47,2.23,7.08,4.27,10.75,6.15,7.7,3.94,15.49,7.73,23.24,11.57,13.45,6.67,21.52,20.18,20.49,34.33-1.12,15.29-10.47,27.28-25.29,31.95-12.32,3.9-24.67,3.43-36.94-.48-2.71-.86-5.4-1.84-8.16-2.47-3.25-.75-5,.24-5.78,3.43-.48,1.87-1.31,2.43-3.09,2.21A26.36,26.36,0,0,0,263,342.49Z" transform="translate(-42.84 -29.21)"/></svg>